<svg width="14" height="10" viewBox="0 0 14 10" fill="none" xmlns="http://www.w3.org/2000/svg">
<path d="M1.0335 9.66671C0.844607 9.66671 0.680718 9.59726 0.541829 9.45837C0.402941 9.31949 0.333496 9.15734 0.333496 8.97192V5.70004C0.333496 5.42226 0.394607 5.15715 0.516829 4.90469C0.639052 4.65222 0.800163 4.42845 1.00016 4.23337V2.36671C1.00016 1.8019 1.19947 1.3218 1.59808 0.926424C1.99669 0.531058 2.48072 0.333374 3.05016 0.333374H5.65016C5.90977 0.333374 6.15246 0.380596 6.37821 0.475041C6.60396 0.569485 6.81127 0.694485 7.00016 0.850041C7.18905 0.694485 7.40016 0.569485 7.6335 0.475041C7.86683 0.380596 8.11127 0.333374 8.36683 0.333374H10.9335C11.5002 0.333374 11.9863 0.531058 12.3918 0.926424C12.7974 1.3218 13.0002 1.8019 13.0002 2.36671V4.23337C13.2002 4.42845 13.3613 4.65222 13.4835 4.90469C13.6057 5.15715 13.6668 5.42226 13.6668 5.70004V8.97192C13.6668 9.15734 13.5974 9.31949 13.4585 9.45837C13.3196 9.59726 13.1557 9.66671 12.9668 9.66671C12.7779 9.66671 12.6141 9.59726 12.4752 9.45837C12.3363 9.31949 12.2668 9.1556 12.2668 8.96671V8.38337H1.7335V8.96671C1.7335 9.1556 1.66405 9.31949 1.52516 9.45837C1.38627 9.59726 1.22239 9.66671 1.0335 9.66671ZM7.70016 3.65004H11.6002V2.37226C11.6002 2.19125 11.5363 2.03951 11.4085 1.91706C11.2807 1.7946 11.1224 1.73337 10.9335 1.73337H8.36683C8.17794 1.73337 8.01961 1.7946 7.89183 1.91706C7.76405 2.03951 7.70016 2.19125 7.70016 2.37226V3.65004ZM2.40016 3.65004H6.30016V2.37169C6.30016 2.19059 6.23775 2.03893 6.11291 1.91671C5.98808 1.79449 5.8334 1.73337 5.64886 1.73337H3.04363C2.8591 1.73337 2.70572 1.7946 2.5835 1.91706C2.46127 2.03951 2.40016 2.19125 2.40016 2.37226V3.65004ZM1.7335 6.98337H12.2668V5.70004C12.2668 5.51587 12.2045 5.3615 12.0799 5.23692C11.9554 5.11234 11.801 5.05004 11.6168 5.05004H2.39238C2.2057 5.05004 2.04922 5.1118 1.92293 5.23532C1.79664 5.35884 1.7335 5.51189 1.7335 5.69449V6.98337Z" fill="#1C1B1F"/>
</svg>
