<svg width="13" height="14" viewBox="0 0 13 14" fill="none" xmlns="http://www.w3.org/2000/svg">
<path d="M7.00016 12.2666C7.60016 12.2666 8.16961 12.1805 8.7085 12.0083C9.24738 11.8361 9.75016 11.5722 10.2168 11.2166C9.26127 10.8611 8.41961 10.3694 7.69183 9.74164C6.96405 9.11387 6.37516 8.3972 5.92516 7.59164C5.47516 6.78609 5.17794 5.90831 5.0335 4.95831C4.88905 4.00831 4.92238 3.03887 5.1335 2.04998C4.12238 2.41664 3.30294 3.0472 2.67516 3.94164C2.04738 4.83609 1.7335 5.85553 1.7335 6.99998C1.7335 8.46665 2.24461 9.71109 3.26683 10.7333C4.28905 11.7555 5.5335 12.2666 7.00016 12.2666ZM7.00016 13.6666C6.07794 13.6666 5.21127 13.4916 4.40016 13.1416C3.58905 12.7916 2.8835 12.3166 2.2835 11.7166C1.6835 11.1166 1.2085 10.4111 0.858496 9.59998C0.508496 8.78887 0.333496 7.9222 0.333496 6.99998C0.333496 5.39998 0.858496 3.99442 1.9085 2.78331C2.9585 1.5722 4.26127 0.805533 5.81683 0.48331C6.1835 0.405532 6.44738 0.480532 6.6085 0.70831C6.76961 0.936088 6.7835 1.24998 6.65016 1.64998C6.36127 2.54998 6.26405 3.45553 6.3585 4.36664C6.45294 5.27776 6.71405 6.1222 7.14183 6.89998C7.56961 7.67776 8.14183 8.35276 8.8585 8.92498C9.57516 9.4972 10.4057 9.89998 11.3502 10.1333C11.7613 10.2333 12.0252 10.4139 12.1418 10.675C12.2585 10.9361 12.1891 11.2055 11.9335 11.4833C11.3224 12.1722 10.5946 12.7083 9.75016 13.0916C8.90572 13.475 7.98905 13.6666 7.00016 13.6666Z" fill="#1C1B1F"/>
</svg>
