<svg width="14" height="14" viewBox="0 0 14 14" fill="none" xmlns="http://www.w3.org/2000/svg">
<path d="M6.99961 7.84961L8.93294 9.78294C9.05517 9.90517 9.19683 9.9635 9.35794 9.95794C9.51905 9.95239 9.66072 9.8885 9.78294 9.76628C9.90517 9.64405 9.96628 9.50239 9.96628 9.34128C9.96628 9.18017 9.90517 9.03874 9.78294 8.91699L7.84961 6.99128L9.78294 5.06556C9.90517 4.94382 9.96628 4.80239 9.96628 4.64128C9.96628 4.48017 9.90517 4.3385 9.78294 4.21628C9.66072 4.09405 9.51905 4.03294 9.35794 4.03294C9.19683 4.03294 9.05517 4.09405 8.93294 4.21628L6.99961 6.14961L5.06628 4.21628C4.94405 4.09405 4.80516 4.03294 4.64961 4.03294C4.49405 4.03294 4.35517 4.09405 4.23294 4.21628C4.11072 4.3385 4.04961 4.48017 4.04961 4.64128C4.04961 4.80239 4.11024 4.94405 4.23149 5.06628L6.14961 6.99961L4.21628 8.93294C4.09405 9.05517 4.03572 9.19405 4.04128 9.34961C4.04683 9.50517 4.11072 9.64405 4.23294 9.76628C4.35517 9.8885 4.49683 9.94961 4.65794 9.94961C4.81905 9.94961 4.96024 9.88898 5.08149 9.76773L6.99961 7.84961ZM7.00421 13.3996C6.12337 13.3996 5.29405 13.2329 4.51628 12.8996C3.7385 12.5663 3.05794 12.1079 2.47461 11.5246C1.89128 10.9413 1.43294 10.261 1.09961 9.48364C0.766276 8.70632 0.599609 7.87577 0.599609 6.99198C0.599609 6.10818 0.766276 5.28017 1.09961 4.50794C1.43294 3.73572 1.89128 3.05794 2.47461 2.47461C3.05794 1.89128 3.73827 1.43294 4.51558 1.09961C5.2929 0.766276 6.12345 0.599609 7.00724 0.599609C7.89104 0.599609 8.71905 0.766276 9.49128 1.09961C10.2635 1.43294 10.9413 1.89128 11.5246 2.47461C12.1079 3.05794 12.5663 3.73696 12.8996 4.51168C13.2329 5.2864 13.3996 6.11418 13.3996 6.99501C13.3996 7.87585 13.2329 8.70516 12.8996 9.48294C12.5663 10.2607 12.1079 10.9413 11.5246 11.5246C10.9413 12.1079 10.2623 12.5663 9.48754 12.8996C8.71282 13.2329 7.88504 13.3996 7.00421 13.3996ZM6.99961 12.1996C8.44405 12.1996 9.67183 11.6941 10.6829 10.6829C11.6941 9.67183 12.1996 8.44405 12.1996 6.99961C12.1996 5.55516 11.6941 4.32739 10.6829 3.31628C9.67183 2.30517 8.44405 1.79961 6.99961 1.79961C5.55516 1.79961 4.32739 2.30517 3.31628 3.31628C2.30517 4.32739 1.79961 5.55516 1.79961 6.99961C1.79961 8.44405 2.30517 9.67183 3.31628 10.6829C4.32739 11.6941 5.55516 12.1996 6.99961 12.1996Z" fill="#DB2D24"/>
</svg>
