<svg width="14" height="14" viewBox="0 0 14 14" fill="none" xmlns="http://www.w3.org/2000/svg">
<path d="M6.14961 7.69961L5.14961 6.71628C5.02739 6.59405 4.8885 6.53294 4.73294 6.53294C4.57739 6.53294 4.4385 6.59405 4.31628 6.71628C4.19405 6.8385 4.13294 6.98017 4.13294 7.14128C4.13294 7.30239 4.19405 7.44405 4.31628 7.56628L5.73294 8.98294C5.85517 9.10517 5.99405 9.16628 6.14961 9.16628C6.30516 9.16628 6.44405 9.10517 6.56628 8.98294L9.68294 5.86628C9.80517 5.74405 9.86628 5.60239 9.86628 5.44128C9.86628 5.28017 9.80517 5.1385 9.68294 5.01628C9.56072 4.89405 9.42183 4.83294 9.26628 4.83294C9.11072 4.83294 8.97183 4.89405 8.84961 5.01628L6.14961 7.69961ZM6.99961 13.3996C6.12183 13.3996 5.29405 13.2329 4.51628 12.8996C3.7385 12.5663 3.05794 12.1079 2.47461 11.5246C1.89128 10.9413 1.43294 10.2607 1.09961 9.48294C0.766276 8.70516 0.599609 7.87739 0.599609 6.99961C0.599609 6.11072 0.766276 5.28017 1.09961 4.50794C1.43294 3.73572 1.89128 3.05794 2.47461 2.47461C3.05794 1.89128 3.7385 1.43294 4.51628 1.09961C5.29405 0.766276 6.12183 0.599609 6.99961 0.599609C7.8885 0.599609 8.71905 0.766276 9.49128 1.09961C10.2635 1.43294 10.9413 1.89128 11.5246 2.47461C12.1079 3.05794 12.5663 3.73572 12.8996 4.50794C13.2329 5.28017 13.3996 6.11072 13.3996 6.99961C13.3996 7.87739 13.2329 8.70516 12.8996 9.48294C12.5663 10.2607 12.1079 10.9413 11.5246 11.5246C10.9413 12.1079 10.2635 12.5663 9.49128 12.8996C8.71905 13.2329 7.8885 13.3996 6.99961 13.3996ZM6.99961 12.1996C8.44405 12.1996 9.67183 11.6941 10.6829 10.6829C11.6941 9.67183 12.1996 8.44405 12.1996 6.99961C12.1996 5.55516 11.6941 4.32739 10.6829 3.31628C9.67183 2.30517 8.44405 1.79961 6.99961 1.79961C5.55516 1.79961 4.32739 2.30517 3.31628 3.31628C2.30517 4.32739 1.79961 5.55516 1.79961 6.99961C1.79961 8.44405 2.30517 9.67183 3.31628 10.6829C4.32739 11.6941 5.55516 12.1996 6.99961 12.1996Z" fill="#4CDB24"/>
</svg>
