<svg width="22" height="20" viewBox="0 0 22 20" fill="none" xmlns="http://www.w3.org/2000/svg">
<path d="M4.29993 4C3.93327 4 3.63743 3.84583 3.41244 3.5375C3.18744 3.22917 3.17493 2.9 3.37493 2.55C3.6416 2.08333 4.0041 1.70833 4.46243 1.425C4.92077 1.14167 5.43327 1 5.99993 1C6.18327 1 6.35827 0.958333 6.52493 0.875C6.6916 0.791667 6.8166 0.658333 6.89994 0.475C6.98327 0.325 7.09577 0.208333 7.23744 0.125C7.3791 0.0416667 7.5416 0 7.72494 0C8.10827 0 8.39994 0.158333 8.59994 0.475C8.79994 0.791667 8.80827 1.11667 8.62494 1.45C8.35827 1.91667 7.99577 2.29167 7.53744 2.575C7.0791 2.85833 6.5666 3 5.99993 3C5.8166 3 5.6416 3.04583 5.47494 3.1375C5.30827 3.22917 5.18327 3.35833 5.09994 3.525C5.0166 3.69167 4.89993 3.8125 4.74993 3.8875C4.59993 3.9625 4.44993 4 4.29993 4ZM3.99993 20C3.7166 20 3.4791 19.9042 3.28744 19.7125C3.09577 19.5208 2.99993 19.2833 2.99993 19V10.625L1.99994 11.4C1.7666 11.5667 1.5166 11.6333 1.24993 11.6C0.983268 11.5667 0.766602 11.4333 0.599935 11.2C0.433268 10.9667 0.366602 10.7167 0.399935 10.45C0.433268 10.1833 0.558268 9.96667 0.774935 9.8L2.99993 8.1V6C2.99993 5.71667 3.09577 5.47917 3.28744 5.2875C3.4791 5.09583 3.7166 5 3.99993 5C4.28327 5 4.52077 5.09583 4.71243 5.2875C4.9041 5.47917 4.99993 5.71667 4.99993 6V6.575L10.3999 2.475C10.4833 2.40833 10.5749 2.35417 10.6749 2.3125C10.7749 2.27083 10.8833 2.25 10.9999 2.25C11.1166 2.25 11.2249 2.27083 11.3249 2.3125C11.4249 2.35417 11.5166 2.40833 11.5999 2.475L21.2249 9.8C21.4416 9.96667 21.5666 10.1833 21.5999 10.45C21.6333 10.7167 21.5666 10.9667 21.3999 11.2C21.2333 11.4167 21.0166 11.5417 20.7499 11.575C20.4833 11.6083 20.2416 11.5417 20.0249 11.375L18.9999 10.625V19C18.9999 19.2833 18.9041 19.5208 18.7124 19.7125C18.5208 19.9042 18.2833 20 17.9999 20H11.9999V15C11.9999 14.7167 11.9041 14.4792 11.7124 14.2875C11.5208 14.0958 11.2833 14 10.9999 14C10.7166 14 10.4791 14.0958 10.2874 14.2875C10.0958 14.4792 9.99994 14.7167 9.99994 15V20H3.99993Z" fill="#0080FF"/>
</svg>
