<svg width="12" height="14" viewBox="0 0 12 14" fill="none" xmlns="http://www.w3.org/2000/svg">
<path d="M3.40342 8.19998C3.23441 8.19998 3.09157 8.14282 2.9749 8.02849C2.85824 7.91416 2.7999 7.77249 2.7999 7.60349C2.7999 7.43448 2.85706 7.29164 2.97139 7.17498C3.08572 7.05831 3.22739 6.99998 3.39639 6.99998C3.5654 6.99998 3.70824 7.05714 3.8249 7.17146C3.94157 7.28579 3.9999 7.42746 3.9999 7.59646C3.9999 7.76547 3.94274 7.90831 3.82842 8.02498C3.71409 8.14164 3.57242 8.19998 3.40342 8.19998ZM6.00342 8.19998C5.83441 8.19998 5.69157 8.14282 5.5749 8.02849C5.45824 7.91416 5.3999 7.77249 5.3999 7.60349C5.3999 7.43448 5.45706 7.29164 5.57139 7.17498C5.68572 7.05831 5.82739 6.99998 5.99639 6.99998C6.1654 6.99998 6.30824 7.05714 6.4249 7.17146C6.54157 7.28579 6.5999 7.42746 6.5999 7.59646C6.5999 7.76547 6.54274 7.90831 6.42842 8.02498C6.31409 8.14164 6.17242 8.19998 6.00342 8.19998ZM8.60342 8.19998C8.43441 8.19998 8.29157 8.14282 8.1749 8.02849C8.05824 7.91416 7.9999 7.77249 7.9999 7.60349C7.9999 7.43448 8.05706 7.29164 8.17139 7.17498C8.28572 7.05831 8.42739 6.99998 8.59639 6.99998C8.7654 6.99998 8.90824 7.05714 9.0249 7.17146C9.14157 7.28579 9.1999 7.42746 9.1999 7.59646C9.1999 7.76547 9.14274 7.90831 9.02842 8.02498C8.91409 8.14164 8.77242 8.19998 8.60342 8.19998ZM1.5999 13.4C1.2699 13.4 0.987402 13.2805 0.752402 13.0416C0.517402 12.8028 0.399902 12.5222 0.399902 12.2V3.39998C0.399902 3.07775 0.517402 2.7972 0.752402 2.55831C0.987402 2.31942 1.2699 2.19998 1.5999 2.19998H2.7999V0.599976H3.9999V2.19998H7.9999V0.599976H9.1999V2.19998H10.3999C10.7299 2.19998 11.0124 2.31942 11.2474 2.55831C11.4824 2.7972 11.5999 3.07775 11.5999 3.39998V12.2C11.5999 12.5222 11.4824 12.8028 11.2474 13.0416C11.0124 13.2805 10.7299 13.4 10.3999 13.4H1.5999ZM1.5999 12.2H10.3999V6.19998H1.5999V12.2ZM1.5999 4.99998H10.3999V3.39998H1.5999V4.99998Z" fill="#1C1B1F"/>
</svg>
