<svg width="138" height="112" viewBox="0 0 138 112" fill="none" xmlns="http://www.w3.org/2000/svg">
<mask id="mask0_186_6863" style="mask-type:luminance" maskUnits="userSpaceOnUse" x="0" y="0" width="138" height="112">
<path d="M0 0H138V112H0V0Z" fill="white"/>
</mask>
<g mask="url(#mask0_186_6863)">
<path d="M16.1574 81.4709C16.0999 81.4336 16.0424 81.3962 15.9849 81.3682C15.6169 81.1909 15.3984 80.9203 15.3179 80.6029C15.2489 80.2856 15.3409 79.9496 15.5824 79.6322C18.2504 78.6056 37.8924 70.9989 42.7454 67.4242C43.9989 66.5002 44.5969 64.1669 45.7125 59.4163C45.9654 58.3336 46.2415 57.1763 46.5405 55.9536C46.828 54.8242 47.5869 52.7336 48.3804 50.5216C49.4729 47.5069 50.6 44.3989 50.9795 42.5602C54.1305 27.0949 56.7525 7.92424 56.7755 7.73758C57.201 4.40558 58.0979 1.01758 61.4329 1.01758C65.366 1.01758 68.1145 3.02424 68.1145 5.90825L68.356 79.6696C68.356 84.9523 65.8835 85.7176 63.02 86.6042C61.41 87.0989 59.593 87.6683 58.305 89.0589C55.6715 91.9149 52.854 95.7043 50.1284 99.3723C48.9669 100.931 47.7825 102.536 46.621 104.039L16.1574 81.4709Z" fill="url(#paint0_linear_186_6863)"/>
<path d="M61.4445 1.94089C64.7565 1.94089 66.976 3.52755 66.976 5.89822L67.2175 79.6502C67.2175 84.2889 65.389 84.8582 62.6175 85.7169C60.8695 86.2582 58.88 86.8742 57.3965 88.4889C54.7285 91.3822 51.8995 95.1902 49.1625 98.8862C48.2425 100.118 47.311 101.378 46.391 102.592L16.951 80.7889C16.8475 80.7142 16.7325 80.6396 16.606 80.5742C16.5025 80.5276 16.4795 80.4809 16.4795 80.4342C16.468 80.4062 16.468 80.3689 16.4795 80.3316C20.2745 78.8662 38.7665 71.6422 43.539 68.1236C45.0685 66.9942 45.6665 64.6982 46.8625 59.6022C47.1155 58.5289 47.3915 57.3622 47.6905 56.1489C47.9665 55.0569 48.714 52.9849 49.5075 50.8009C50.6115 47.7582 51.75 44.6129 52.1295 42.7182C55.2805 27.2249 57.9025 8.03555 57.937 7.83022C58.466 3.69555 59.5125 1.94089 61.4445 1.94089ZM61.4445 0.0742188C56.879 0.0742188 56.0395 4.61955 55.6485 7.62489C55.6485 7.62489 53.038 26.7769 49.864 42.4009C49.22 45.5649 46.1035 53.0782 45.4365 55.7662C44.022 61.4036 43.2975 65.7622 41.9865 66.7329C36.961 70.4382 14.835 78.8849 14.835 78.8849C13.754 79.9956 13.9955 81.4609 15.387 82.1516L46.8625 105.466C50.8875 100.333 55.269 93.8929 59.225 89.5996C62.3875 86.1649 69.506 88.6662 69.506 79.6502L69.2645 5.89822C69.2645 2.68755 66.2975 0.0742188 61.4445 0.0742188Z" fill="#E6B77E"/>
<path d="M50.1055 118.215L-7.95801 117.692L-7.31401 81.4601L29.187 68.1601C30.9005 67.5441 32.89 68.3188 33.35 69.7934C34.4425 73.2561 36.984 79.3974 42.55 85.5574C47.794 91.3628 53.452 95.8428 56.971 98.4001C58.995 99.8748 59.57 102.255 58.3625 104.233L44.3785 112.96L50.1055 118.215Z" fill="url(#paint1_linear_186_6863)"/>
<path d="M55.89 13.0656C55.89 13.0656 56.833 8.24023 62.238 8.24023C67.643 8.24023 68.011 13.0656 68.011 13.0656" stroke="#E6B77E" stroke-width="0.926476" stroke-miterlimit="10" stroke-linecap="round" stroke-linejoin="round"/>
<path d="M54.1765 25.1991C54.1765 25.1991 55.361 19.9258 61.088 19.9258C66.815 19.9258 68.126 25.1991 68.126 25.1991" stroke="#E6B77E" stroke-width="0.926476" stroke-miterlimit="10" stroke-linecap="round" stroke-linejoin="round"/>
<path opacity="0.2" d="M30.1415 70.8853C31.2915 74.3853 33.994 80.816 39.767 87.2093C45.103 93.108 50.8185 97.6813 54.671 100.481C55.361 100.985 55.66 101.751 55.4875 102.469L42.3545 110.244C41.584 110.701 41.0895 111.383 40.963 112.148C40.8365 112.913 41.1125 113.679 41.7105 114.276L42.7915 115.349L-4.43903 114.92L-3.87553 83.2893L30.1415 70.8853ZM30.429 67.9453C30.015 67.9453 29.601 68.0106 29.1985 68.16L-7.30253 81.46L-7.94653 117.692L50.117 118.215L44.3785 112.503L58.3625 104.233C59.57 102.255 59.0065 99.8653 56.971 98.4C53.452 95.8426 47.8055 91.372 42.55 85.5573C36.984 79.4066 34.4425 73.2653 33.35 69.7933C33.005 68.664 31.7515 67.9453 30.429 67.9453Z" fill="#424242"/>
</g>
<mask id="mask1_186_6863" style="mask-type:luminance" maskUnits="userSpaceOnUse" x="0" y="0" width="138" height="112">
<path d="M0 0H138V112H0V0Z" fill="white"/>
</mask>
<g mask="url(#mask1_186_6863)">
<path d="M90.8385 104.03C89.6885 102.527 88.4925 100.922 87.331 99.3629C84.6055 95.6949 81.788 91.8963 79.1545 89.0496C77.8665 87.6589 76.0495 87.0896 74.4395 86.5949C71.576 85.7083 69.1035 84.9429 69.1035 79.6602L69.345 5.90825C69.345 3.02424 72.0935 1.01758 76.0265 1.01758C79.3615 1.01758 80.247 4.41491 80.684 7.73758C80.707 7.93358 83.329 27.1042 86.48 42.5696C86.848 44.4082 87.9865 47.5256 89.079 50.5309C89.884 52.7429 90.643 54.8336 90.919 55.9629C91.2295 57.1856 91.5055 58.3522 91.7585 59.4349C92.874 64.1856 93.472 66.5096 94.7255 67.4336C99.567 71.0083 119.221 78.6149 121.889 79.6416C122.13 79.9496 122.222 80.2856 122.153 80.6029C122.084 80.9203 121.854 81.1909 121.486 81.3682C121.429 81.3962 121.371 81.4336 121.314 81.4709L90.8385 104.03Z" fill="url(#paint2_linear_186_6863)"/>
<path d="M76.015 1.94089C77.947 1.94089 78.9935 3.70489 79.534 7.83022C79.557 8.02622 82.1905 27.2156 85.3415 42.7089C85.7325 44.6036 86.871 47.7489 87.9635 50.7916C88.757 52.9849 89.5045 55.0476 89.7805 56.1396C90.091 57.3622 90.3555 58.5196 90.6085 59.5929C91.8045 64.6889 92.4025 66.9849 93.932 68.1142C98.7045 71.6422 117.197 78.8569 120.992 80.3222C121.003 80.3596 121.003 80.3969 120.992 80.4249C120.98 80.4622 120.957 80.5089 120.865 80.5649C120.739 80.6302 120.624 80.6956 120.52 80.7796L91.08 102.582C90.16 101.369 89.2285 100.109 88.3085 98.8769C85.5715 95.1902 82.731 91.3729 80.0745 88.4796C78.591 86.8742 76.6015 86.2582 74.8535 85.7169C72.082 84.8582 70.2535 84.2889 70.2535 79.6596L70.495 5.89822C70.4835 3.52755 72.7145 1.94089 76.015 1.94089ZM76.015 0.0742188C71.162 0.0742188 68.1835 2.68755 68.1835 5.89822L67.942 79.6502C67.942 88.6662 75.0605 86.1649 78.223 89.5996C82.179 93.8929 86.5605 100.333 90.5855 105.466L122.061 82.1609C123.453 81.4702 123.706 80.0049 122.613 78.8942C122.613 78.8942 100.487 70.4476 95.4615 66.7422C94.1505 65.7716 93.426 61.4129 92.0115 55.7756C91.3445 53.0876 88.228 45.5742 87.584 42.4102C84.41 26.7862 81.7995 7.63422 81.7995 7.63422C81.4315 4.61955 80.5805 0.0742188 76.015 0.0742188Z" fill="#E6B77E"/>
<path d="M87.3425 118.215L145.406 117.692L144.762 81.4601L108.261 68.1601C106.547 67.5441 104.558 68.3188 104.098 69.7934C103.005 73.2561 100.464 79.3974 94.898 85.5574C89.654 91.3628 83.996 95.8428 80.477 98.4001C78.453 99.8748 77.878 102.255 79.0855 104.233L93.0695 112.96L87.3425 118.215Z" fill="url(#paint3_linear_186_6863)"/>
<path d="M81.5695 13.0656C81.5695 13.0656 80.6265 8.24023 75.2215 8.24023C69.8165 8.24023 69.4485 13.0656 69.4485 13.0656" stroke="#E6B77E" stroke-width="0.926476" stroke-miterlimit="10" stroke-linecap="round" stroke-linejoin="round"/>
<path d="M83.283 25.1991C83.283 25.1991 82.0985 19.9258 76.3715 19.9258C70.633 19.9258 69.3335 25.1991 69.3335 25.1991" stroke="#E6B77E" stroke-width="0.926476" stroke-miterlimit="10" stroke-linecap="round" stroke-linejoin="round"/>
<path opacity="0.2" d="M107.318 70.8853L141.346 83.28L141.91 114.911L94.6795 115.34L95.7605 114.267C96.3585 113.669 96.6345 112.904 96.508 112.139C96.3815 111.373 95.887 110.692 95.1165 110.235L81.9835 102.46C81.811 101.741 82.0985 100.976 82.8 100.472C86.6525 97.672 92.368 93.0986 97.704 87.2C103.465 80.816 106.168 74.3853 107.318 70.8853ZM107.03 67.9453C105.696 67.9453 104.454 68.664 104.098 69.7933C103.005 73.256 100.464 79.3973 94.898 85.5573C89.654 91.3626 83.996 95.8426 80.477 98.4C78.453 99.8746 77.878 102.255 79.0855 104.233L93.0695 112.503L87.331 118.215L145.394 117.692L144.75 81.46L108.261 68.16C107.858 68.0106 107.444 67.9453 107.03 67.9453Z" fill="#424242"/>
</g>
<defs>
<linearGradient id="paint0_linear_186_6863" x1="41.831" y1="104.03" x2="41.831" y2="1.0074" gradientUnits="userSpaceOnUse">
<stop stop-color="#EDC391"/>
<stop offset="1" stop-color="#F9DDBD"/>
</linearGradient>
<linearGradient id="paint1_linear_186_6863" x1="-7.95019" y1="93.0801" x2="58.9858" y2="93.0801" gradientUnits="userSpaceOnUse">
<stop stop-color="#2196F3"/>
<stop offset="1" stop-color="#64B5F6"/>
</linearGradient>
<linearGradient id="paint2_linear_186_6863" x1="95.6733" y1="104.03" x2="95.6733" y2="1.0074" gradientUnits="userSpaceOnUse">
<stop stop-color="#EDC391"/>
<stop offset="1" stop-color="#F9DDBD"/>
</linearGradient>
<linearGradient id="paint3_linear_186_6863" x1="145.406" y1="93.0801" x2="78.476" y2="93.0801" gradientUnits="userSpaceOnUse">
<stop stop-color="#2196F3"/>
<stop offset="1" stop-color="#64B5F6"/>
</linearGradient>
</defs>
</svg>
