<svg width="12" height="12" viewBox="0 0 12 12" fill="none" xmlns="http://www.w3.org/2000/svg">
<path d="M1.33333 12C1.14444 12 0.986111 11.9361 0.858333 11.8083C0.730556 11.6806 0.666667 11.5222 0.666667 11.3333V9.33333C0.666667 8.96667 0.797222 8.65278 1.05833 8.39167C1.31944 8.13056 1.63333 8 2 8H10C10.3667 8 10.6806 8.13056 10.9417 8.39167C11.2028 8.65278 11.3333 8.96667 11.3333 9.33333V11.3333C11.3333 11.5222 11.2694 11.6806 11.1417 11.8083C11.0139 11.9361 10.8556 12 10.6667 12C10.4778 12 10.3194 11.9361 10.1917 11.8083C10.0639 11.6806 10 11.5222 10 11.3333V9.33333H2V11.3333C2 11.5222 1.93611 11.6806 1.80833 11.8083C1.68056 11.9361 1.52222 12 1.33333 12ZM1 7.33333C0.722222 7.33333 0.486111 7.23611 0.291667 7.04167C0.0972222 6.84722 0 6.61111 0 6.33333C0 6.05556 0.0972222 5.81944 0.291667 5.625C0.486111 5.43056 0.722222 5.33333 1 5.33333C1.27778 5.33333 1.51389 5.43056 1.70833 5.625C1.90278 5.81944 2 6.05556 2 6.33333C2 6.61111 1.90278 6.84722 1.70833 7.04167C1.51389 7.23611 1.27778 7.33333 1 7.33333ZM2.66667 7.33333V1.33333C2.66667 0.966667 2.79722 0.652778 3.05833 0.391667C3.31944 0.130556 3.63333 0 4 0H8C8.36667 0 8.68056 0.130556 8.94167 0.391667C9.20278 0.652778 9.33333 0.966667 9.33333 1.33333V7.33333H2.66667ZM11 7.33333C10.7222 7.33333 10.4861 7.23611 10.2917 7.04167C10.0972 6.84722 10 6.61111 10 6.33333C10 6.05556 10.0972 5.81944 10.2917 5.625C10.4861 5.43056 10.7222 5.33333 11 5.33333C11.2778 5.33333 11.5139 5.43056 11.7083 5.625C11.9028 5.81944 12 6.05556 12 6.33333C12 6.61111 11.9028 6.84722 11.7083 7.04167C11.5139 7.23611 11.2778 7.33333 11 7.33333ZM4 6H8V1.33333H4V6Z" fill="#1C1B1F"/>
</svg>
