<svg width="16" height="17" viewBox="0 0 16 17" fill="none" xmlns="http://www.w3.org/2000/svg">
<path d="M16.0004 8.04996C15.9816 6.52545 15.5276 5.03803 14.6919 3.76289C13.8561 2.48775 12.6733 1.47798 11.2829 0.85251C9.89249 0.22704 8.35229 0.011915 6.84369 0.23247C5.33509 0.453024 3.92094 1.10007 2.76776 2.09741C1.61459 3.09476 0.770416 4.40085 0.334671 5.86189C-0.101074 7.32293 -0.110249 8.87806 0.308227 10.3441C0.726703 11.8102 1.5554 13.1262 2.69673 14.1371C3.83806 15.1479 5.24448 15.8116 6.75037 16.05V10.38H4.75037V8.04996H6.75037V6.27996C6.70409 5.8684 6.74871 5.45169 6.88108 5.05925C7.01345 4.66681 7.23034 4.30821 7.51644 4.00876C7.80254 3.7093 8.15089 3.47629 8.53688 3.32617C8.92288 3.17606 9.33712 3.11249 9.75037 3.13996C10.3502 3.14818 10.9486 3.20166 11.5404 3.29996V5.29996H10.5404C10.3679 5.27822 10.1928 5.2955 10.028 5.35053C9.86309 5.40556 9.7127 5.49693 9.5879 5.61789C9.4631 5.73885 9.36707 5.88631 9.30692 6.04938C9.24677 6.21244 9.22402 6.38693 9.24037 6.55997V8.06996H11.4604L11.1004 10.4H9.25037V16C11.1403 15.701 12.8605 14.7346 14.0989 13.276C15.3373 11.8175 16.0119 9.96333 16.0004 8.04996Z" fill="#699BF7"/>
</svg>
