<svg width="13" height="19" viewBox="0 0 13 19" fill="none" xmlns="http://www.w3.org/2000/svg">
<path d="M9.65 2.33329H6.66667V0.666626H12.5V6.49996H10.8333V3.50829L7.64167 6.69996C8.01828 7.26865 8.24953 7.9211 8.3151 8.60004C8.38068 9.27897 8.27857 9.96362 8.01774 10.5939C7.75692 11.2241 7.34536 11.7807 6.81919 12.2148C6.29303 12.6488 5.66835 12.947 5 13.0833V14.8333H6.66667V16.5H5V18.1666H3.33333V16.5H1.66667V14.8333H3.33333V13.0833C2.3922 12.8912 1.54634 12.3798 0.938911 11.6357C0.331486 10.8916 -0.000195959 9.9605 8.68569e-08 8.99996C8.68569e-08 7.89489 0.438987 6.83508 1.22039 6.05368C2.00179 5.27228 3.0616 4.83329 4.16667 4.83329C5 4.83329 5.8 5.08329 6.45833 5.52496L9.65 2.33329ZM4.16667 6.49996C3.50363 6.49996 2.86774 6.76335 2.3989 7.23219C1.93006 7.70103 1.66667 8.33692 1.66667 8.99996C1.66667 9.663 1.93006 10.2989 2.3989 10.7677C2.86774 11.2366 3.50363 11.5 4.16667 11.5C4.82971 11.5 5.46559 11.2366 5.93443 10.7677C6.40327 10.2989 6.66667 9.663 6.66667 8.99996C6.66667 8.33692 6.40327 7.70103 5.93443 7.23219C5.46559 6.76335 4.82971 6.49996 4.16667 6.49996Z" fill="#4B4C4E"/>
</svg>
