<svg width="18" height="17" viewBox="0 0 18 17" fill="none" xmlns="http://www.w3.org/2000/svg">
<path d="M8.00008 16.5C7.71675 16.5 7.47925 16.4042 7.28758 16.2125C7.09591 16.0208 7.00008 15.7833 7.00008 15.5V9.5L1.20008 2.1C0.95008 1.76667 0.91258 1.41667 1.08758 1.05C1.26258 0.683333 1.56675 0.5 2.00008 0.5H16.0001C16.4334 0.5 16.7376 0.683333 16.9126 1.05C17.0876 1.41667 17.0501 1.76667 16.8001 2.1L11.0001 9.5V15.5C11.0001 15.7833 10.9042 16.0208 10.7126 16.2125C10.5209 16.4042 10.2834 16.5 10.0001 16.5H8.00008ZM9.00008 8.8L13.9501 2.5H4.05008L9.00008 8.8Z" fill="#F9FAFB"/>
</svg>
