<svg width="16" height="15" viewBox="0 0 16 15" fill="none" xmlns="http://www.w3.org/2000/svg">
<path d="M6.22222 13.3333C5.97037 13.3333 5.75926 13.2481 5.58889 13.0778C5.41852 12.9074 5.33333 12.6963 5.33333 12.4444C5.33333 12.1926 5.41852 11.9815 5.58889 11.8111C5.75926 11.6407 5.97037 11.5556 6.22222 11.5556H15.1111C15.363 11.5556 15.5741 11.6407 15.7444 11.8111C15.9148 11.9815 16 12.1926 16 12.4444C16 12.6963 15.9148 12.9074 15.7444 13.0778C15.5741 13.2481 15.363 13.3333 15.1111 13.3333H6.22222ZM6.22222 8C5.97037 8 5.75926 7.91482 5.58889 7.74444C5.41852 7.57407 5.33333 7.36296 5.33333 7.11111C5.33333 6.85926 5.41852 6.64815 5.58889 6.47778C5.75926 6.30741 5.97037 6.22222 6.22222 6.22222H15.1111C15.363 6.22222 15.5741 6.30741 15.7444 6.47778C15.9148 6.64815 16 6.85926 16 7.11111C16 7.36296 15.9148 7.57407 15.7444 7.74444C15.5741 7.91482 15.363 8 15.1111 8H6.22222ZM6.22222 2.66667C5.97037 2.66667 5.75926 2.58148 5.58889 2.41111C5.41852 2.24074 5.33333 2.02963 5.33333 1.77778C5.33333 1.52593 5.41852 1.31481 5.58889 1.14444C5.75926 0.974074 5.97037 0.888889 6.22222 0.888889H15.1111C15.363 0.888889 15.5741 0.974074 15.7444 1.14444C15.9148 1.31481 16 1.52593 16 1.77778C16 2.02963 15.9148 2.24074 15.7444 2.41111C15.5741 2.58148 15.363 2.66667 15.1111 2.66667H6.22222ZM1.77778 14.2222C1.28889 14.2222 0.87037 14.0481 0.522222 13.7C0.174074 13.3519 0 12.9333 0 12.4444C0 11.9556 0.174074 11.537 0.522222 11.1889C0.87037 10.8407 1.28889 10.6667 1.77778 10.6667C2.26667 10.6667 2.68519 10.8407 3.03333 11.1889C3.38148 11.537 3.55556 11.9556 3.55556 12.4444C3.55556 12.9333 3.38148 13.3519 3.03333 13.7C2.68519 14.0481 2.26667 14.2222 1.77778 14.2222ZM1.77778 8.88889C1.28889 8.88889 0.87037 8.71482 0.522222 8.36667C0.174074 8.01852 0 7.6 0 7.11111C0 6.62222 0.174074 6.2037 0.522222 5.85556C0.87037 5.50741 1.28889 5.33333 1.77778 5.33333C2.26667 5.33333 2.68519 5.50741 3.03333 5.85556C3.38148 6.2037 3.55556 6.62222 3.55556 7.11111C3.55556 7.6 3.38148 8.01852 3.03333 8.36667C2.68519 8.71482 2.26667 8.88889 1.77778 8.88889ZM1.77778 3.55556C1.28889 3.55556 0.87037 3.38148 0.522222 3.03333C0.174074 2.68519 0 2.26667 0 1.77778C0 1.28889 0.174074 0.87037 0.522222 0.522222C0.87037 0.174074 1.28889 0 1.77778 0C2.26667 0 2.68519 0.174074 3.03333 0.522222C3.38148 0.87037 3.55556 1.28889 3.55556 1.77778C3.55556 2.26667 3.38148 2.68519 3.03333 3.03333C2.68519 3.38148 2.26667 3.55556 1.77778 3.55556Z" fill="#0080FF"/>
</svg>
