<svg width="25" height="24" viewBox="0 0 25 24" fill="none" xmlns="http://www.w3.org/2000/svg">
<path d="M12.6667 22C18.1895 22 22.6667 17.5228 22.6667 12C22.6667 6.47715 18.1895 2 12.6667 2C7.1439 2 2.66675 6.47715 2.66675 12C2.66675 17.5228 7.1439 22 12.6667 22Z" stroke="#0080FF" stroke-width="3.12263" stroke-linecap="round" stroke-linejoin="round"/>
<path d="M8.6666 3H9.6666C7.7166 8.84 7.7166 15.16 9.6666 21H8.6666" stroke="#0080FF" stroke-width="3.12263" stroke-linecap="round" stroke-linejoin="round"/>
<path d="M15.6667 3C17.6167 8.84 17.6167 15.16 15.6667 21" stroke="#0080FF" stroke-width="3.12263" stroke-linecap="round" stroke-linejoin="round"/>
<path d="M3.66675 16V15C9.50675 16.95 15.8267 16.95 21.6667 15V16" stroke="#0080FF" stroke-width="3.12263" stroke-linecap="round" stroke-linejoin="round"/>
<path d="M3.66675 8.99961C9.50675 7.04961 15.8267 7.04961 21.6667 8.99961" stroke="#0080FF" stroke-width="3.12263" stroke-linecap="round" stroke-linejoin="round"/>
</svg>
