<svg width="18" height="18" viewBox="0 0 18 18" fill="none" xmlns="http://www.w3.org/2000/svg">
<path d="M17.66 7.2C17.756 7.2 17.839 7.267 17.855 7.361C17.949 7.887 18 8.453 18 9C18.003 11.2149 17.1862 13.3525 15.707 15.001C15.6727 15.0391 15.6248 15.0622 15.5737 15.0656C15.5225 15.069 15.472 15.0522 15.433 15.019L12.988 12.949C12.9669 12.9309 12.9498 12.9087 12.9375 12.8838C12.9252 12.8588 12.9181 12.8317 12.9166 12.8039C12.9152 12.7762 12.9193 12.7484 12.9288 12.7223C12.9383 12.6962 12.953 12.6723 12.972 12.652C13.4644 12.1161 13.8433 11.4861 14.086 10.8H9.20001C9.14696 10.8 9.09609 10.7789 9.05859 10.7414C9.02108 10.7039 9.00001 10.653 9.00001 10.6V7.4C9.00001 7.29 9.09001 7.2 9.20001 7.2H17.66ZM11.473 13.8C11.5088 13.7813 11.5494 13.7735 11.5896 13.7778C11.6299 13.7821 11.6679 13.7982 11.699 13.824L14.267 15.997C14.2899 16.0161 14.3082 16.0401 14.3204 16.0673C14.3326 16.0945 14.3384 16.1241 14.3375 16.1539C14.3365 16.1837 14.3288 16.2129 14.3148 16.2393C14.3009 16.2656 14.2811 16.2884 14.257 16.306C12.7268 17.4102 10.887 18.0031 9.00001 18C7.50001 18.0008 6.02365 17.6263 4.70534 16.9107C3.38702 16.1952 2.26864 15.1612 1.45201 13.903C1.42526 13.8614 1.41514 13.8112 1.42366 13.7625C1.43218 13.7138 1.45872 13.6701 1.49801 13.64L4.04301 11.678C4.06641 11.6605 4.09324 11.6482 4.12175 11.6418C4.15026 11.6354 4.1798 11.6352 4.20842 11.641C4.23704 11.6469 4.26409 11.6587 4.28781 11.6758C4.31152 11.6928 4.33136 11.7147 4.34601 11.74C5.04567 12.9291 6.1741 13.8052 7.49955 14.1883C8.82499 14.5714 10.2468 14.4325 11.473 13.8ZM3.68001 9.926C3.6864 9.96264 3.68271 10.0003 3.66932 10.035C3.65593 10.0697 3.63336 10.1001 3.60401 10.123L0.869007 12.23C0.84487 12.2489 0.816623 12.262 0.78654 12.268C0.756458 12.274 0.725379 12.2729 0.695805 12.2647C0.666232 12.2566 0.63899 12.2416 0.616272 12.2209C0.593554 12.2003 0.575994 12.1746 0.565007 12.146C0.190056 11.1396 -0.00130768 10.074 6.72528e-06 9C6.72528e-06 7.848 0.217007 6.746 0.612007 5.733C0.623099 5.70508 0.640461 5.68008 0.662752 5.65994C0.685043 5.6398 0.711666 5.62505 0.740564 5.61683C0.769463 5.60862 0.799863 5.60716 0.829417 5.61256C0.85897 5.61797 0.886886 5.63009 0.911007 5.648L3.64301 7.652C3.70801 7.699 3.73801 7.782 3.72101 7.86C3.57462 8.5396 3.56136 9.24102 3.68001 9.926ZM4.14701 6.161C4.24301 6.231 4.37801 6.203 4.44201 6.103C4.9294 5.33562 5.60277 4.70381 6.39961 4.26623C7.19645 3.82865 8.09093 3.59948 9.00001 3.6C10.257 3.59958 11.4744 4.04016 12.44 4.845C12.479 4.87802 12.5289 4.8953 12.5799 4.89345C12.631 4.8916 12.6795 4.87076 12.716 4.835L14.982 2.568C15.001 2.54912 15.0159 2.52657 15.0259 2.50173C15.0359 2.47688 15.0407 2.45026 15.04 2.4235C15.0394 2.39673 15.0333 2.37038 15.0221 2.34605C15.0109 2.32172 14.9949 2.29993 14.975 2.282C13.3323 0.8116 11.2047 -0.00096017 9.00001 1.36922e-06C7.51967 -0.000815467 6.06204 0.363854 4.75648 1.06164C3.45092 1.75943 2.33783 2.76874 1.51601 4C1.48838 4.0423 1.47806 4.0936 1.48718 4.14329C1.4963 4.19298 1.52416 4.23727 1.56501 4.267L4.14701 6.161Z" fill="#DB4A39"/>
</svg>
