<svg width="25" height="21" viewBox="0 0 25 21" fill="none" xmlns="http://www.w3.org/2000/svg">
<path d="M16.8924 21H21.7374L20.6262 19.1793L16.8924 21ZM19.7203 17.6984L14.6837 9.45186L24.4482 3.43536e-07H16.7346C16.1299 -0.000328257 15.5491 0.235091 15.1163 0.655933L8.27634 7.3167L9.04651 3.43536e-07H2.08105L-0.000445531 19.7473C-0.0173494 19.9056 -0.000626318 20.0657 0.0486361 20.2171C0.0978986 20.3686 0.178597 20.508 0.285484 20.6263C0.39237 20.7446 0.523051 20.8392 0.669026 20.9039C0.815002 20.9685 0.973004 21.0019 1.13276 21.0017H6.8327L7.30599 16.5674L9.40615 14.5387L13.1009 20.3593C13.2254 20.5551 13.3975 20.7163 13.6012 20.8281C13.805 20.9398 14.0338 20.9984 14.2664 20.9983H16.8924L18.2173 18.3661L19.7203 17.6984Z" fill="#2D2A70"/>
</svg>
