<svg width="34" height="21" viewBox="0 0 34 21" fill="none" xmlns="http://www.w3.org/2000/svg">
<path d="M7.91942 21L17.3532 15.2843L18.5542 20.1378C18.615 20.3844 18.757 20.6035 18.9575 20.7602C19.158 20.9168 19.4055 21.0018 19.6603 21.0017H25.7674L23.0395 11.8338L33.4283 5.53824L33.4725 5.1156L0.901367 20.9983L7.91942 21ZM22.0641 8.54911L19.5178 4.25784e-09H13.5176C12.9032 -3.109e-05 12.301 0.170246 11.7782 0.491788C11.2554 0.813331 10.8327 1.27346 10.5573 1.82072L1.98198 18.8276L33.5352 4.48334L33.5844 4.00153L22.0641 8.54911ZM11.9229 12.5506L14.0265 8.11464L14.5812 6.88899C14.6138 6.81799 14.6677 6.75882 14.7354 6.71965C14.8032 6.68047 14.8814 6.66321 14.9594 6.67027C15.0375 6.67732 15.1113 6.70832 15.1709 6.75901C15.2305 6.80969 15.2728 6.87756 15.292 6.95323L16.2539 10.8415L11.9229 12.5506Z" fill="#ED6B23"/>
</svg>
