<svg width="12" height="14" viewBox="0 0 12 14" fill="none" xmlns="http://www.w3.org/2000/svg">
<path d="M6.0019 7.03337C6.3783 7.03337 6.69984 6.89935 6.9665 6.63131C7.23317 6.36326 7.3665 6.04104 7.3665 5.66464C7.3665 5.28824 7.23248 4.96671 6.96444 4.70004C6.69639 4.43337 6.37417 4.30004 5.99777 4.30004C5.62137 4.30004 5.29984 4.43406 5.03317 4.70211C4.7665 4.97015 4.63317 5.29237 4.63317 5.66877C4.63317 6.04517 4.76719 6.36671 5.03524 6.63337C5.30328 6.90004 5.6255 7.03337 6.0019 7.03337ZM5.99984 11.8C7.34428 10.5667 8.33595 9.45171 8.97484 8.45506C9.61373 7.4584 9.93317 6.5734 9.93317 5.80004C9.93317 4.58893 9.55539 3.60837 8.79984 2.85837C8.04428 2.10837 7.11095 1.73337 5.99984 1.73337C4.88873 1.73337 3.95539 2.10837 3.19984 2.85837C2.44428 3.60837 2.0665 4.58893 2.0665 5.80004C2.0665 6.5734 2.38595 7.4584 3.02484 8.45506C3.66373 9.45171 4.65539 10.5667 5.99984 11.8ZM5.99567 13.3834C5.89845 13.3834 5.80539 13.3667 5.7165 13.3334C5.62761 13.3 5.54428 13.2556 5.4665 13.2C3.84428 11.7556 2.63873 10.4278 1.84984 9.21671C1.06095 8.0056 0.666504 6.86454 0.666504 5.79354C0.666504 4.1201 1.19984 2.79171 2.2665 1.80837C3.33317 0.825041 4.57762 0.333374 5.99984 0.333374C7.42206 0.333374 8.6665 0.825041 9.73317 1.80837C10.7998 2.79171 11.3332 4.1201 11.3332 5.79354C11.3332 6.86454 10.9387 8.0056 10.1498 9.21671C9.36095 10.4278 8.15539 11.7554 6.53317 13.1994C6.4665 13.2554 6.38456 13.3 6.28734 13.3334C6.19012 13.3667 6.09289 13.3834 5.99567 13.3834Z" fill="#0D0D0D"/>
</svg>
