<svg width="50" height="21" viewBox="0 0 50 21" fill="none" xmlns="http://www.w3.org/2000/svg">
<path d="M16.8929 21H21.7378L20.6267 19.1793L16.8929 21ZM19.7208 17.6984L14.6842 9.45186L24.4487 3.43536e-07H16.7351C16.1304 -0.000328257 15.5496 0.235091 15.1168 0.655933L8.27683 7.3167L9.047 3.43536e-07H2.08154L4.275e-05 19.7473C-0.0168611 19.9056 -0.000138036 20.0657 0.0491244 20.2171C0.0983869 20.3686 0.179085 20.508 0.285972 20.6263C0.392858 20.7446 0.523539 20.8392 0.669515 20.9039C0.815491 20.9685 0.973493 21.0019 1.13324 21.0017H6.83318L7.30648 16.5674L9.40664 14.5387L13.1014 20.3593C13.2259 20.5551 13.398 20.7163 13.6017 20.8281C13.8055 20.9398 14.0343 20.9984 14.2669 20.9983H16.8929L18.2178 18.3661L19.7208 17.6984Z" fill="#2D2A70"/>
<path d="M23.9194 21L33.3532 15.2843L34.5542 20.1378C34.615 20.3844 34.757 20.6035 34.9575 20.7602C35.158 20.9168 35.4055 21.0018 35.6603 21.0017H41.7674L39.0395 11.8338L49.4283 5.53824L49.4725 5.1156L16.9014 20.9983L23.9194 21ZM38.0641 8.54911L35.5178 4.25784e-09H29.5176C28.9032 -3.109e-05 28.301 0.170246 27.7782 0.491788C27.2554 0.813331 26.8327 1.27346 26.5573 1.82072L17.982 18.8276L49.5352 4.48334L49.5844 4.00153L38.0641 8.54911ZM27.9229 12.5506L30.0265 8.11464L30.5812 6.88899C30.6138 6.81799 30.6677 6.75882 30.7354 6.71965C30.8032 6.68047 30.8814 6.66321 30.9594 6.67027C31.0375 6.67732 31.1113 6.70832 31.1709 6.75901C31.2305 6.80969 31.2728 6.87756 31.292 6.95323L32.2539 10.8415L27.9229 12.5506Z" fill="#ED6B23"/>
<path d="M45.7232 0C44.9048 0.000173715 44.1153 0.302424 43.5073 0.848436C42.8992 1.39445 42.5156 2.14553 42.4305 2.95677L42.0064 6.9938L49.5877 4.00153L49.9999 0H45.7232ZM40.5322 21H47.8268L49.4248 5.53993L41.6637 10.2464L40.5322 21Z" fill="#2D2A70"/>
</svg>
