<svg width="224" height="224" viewBox="0 0 224 224" fill="none" xmlns="http://www.w3.org/2000/svg">
<path d="M10.6667 0H0V10.6667H10.6667V0Z" fill="black"/>
<path d="M21.3333 0H10.6667V10.6667H21.3333V0Z" fill="black"/>
<path d="M32 0H21.3333V10.6667H32V0Z" fill="black"/>
<path d="M42.6667 0H32V10.6667H42.6667V0Z" fill="black"/>
<path d="M53.3333 0H42.6667V10.6667H53.3333V0Z" fill="black"/>
<path d="M64 0H53.3333V10.6667H64V0Z" fill="black"/>
<path d="M74.6667 0H64V10.6667H74.6667V0Z" fill="black"/>
<path d="M96 0H85.3333V10.6667H96V0Z" fill="black"/>
<path d="M106.667 0H96V10.6667H106.667V0Z" fill="black"/>
<path d="M117.333 0H106.667V10.6667H117.333V0Z" fill="black"/>
<path d="M128 0H117.333V10.6667H128V0Z" fill="black"/>
<path d="M160 0H149.333V10.6667H160V0Z" fill="black"/>
<path d="M170.667 0H160V10.6667H170.667V0Z" fill="black"/>
<path d="M181.333 0H170.667V10.6667H181.333V0Z" fill="black"/>
<path d="M192 0H181.333V10.6667H192V0Z" fill="black"/>
<path d="M202.667 0H192V10.6667H202.667V0Z" fill="black"/>
<path d="M213.333 0H202.667V10.6667H213.333V0Z" fill="black"/>
<path d="M224 0H213.333V10.6667H224V0Z" fill="black"/>
<path d="M10.6667 10.6667H0V21.3333H10.6667V10.6667Z" fill="black"/>
<path d="M74.6667 10.6667H64V21.3333H74.6667V10.6667Z" fill="black"/>
<path d="M106.667 10.6667H96L96 21.3333H106.667V10.6667Z" fill="black"/>
<path d="M128 10.6667H117.333L117.333 21.3333H128V10.6667Z" fill="black"/>
<path d="M138.667 10.6667H128V21.3333H138.667V10.6667Z" fill="black"/>
<path d="M160 10.6667H149.333V21.3333H160V10.6667Z" fill="black"/>
<path d="M224 10.6667H213.333V21.3333H224V10.6667Z" fill="black"/>
<path d="M10.6667 21.3333H0V32H10.6667V21.3333Z" fill="black"/>
<path d="M32 21.3333H21.3333V32H32V21.3333Z" fill="black"/>
<path d="M42.6667 21.3333H32V32H42.6667V21.3333Z" fill="black"/>
<path d="M53.3333 21.3333H42.6667V32H53.3333V21.3333Z" fill="black"/>
<path d="M74.6667 21.3333H64V32H74.6667V21.3333Z" fill="black"/>
<path d="M96 21.3333H85.3333V32H96L96 21.3333Z" fill="black"/>
<path d="M106.667 21.3333H96L96 32H106.667V21.3333Z" fill="black"/>
<path d="M160 21.3333H149.333V32H160V21.3333Z" fill="black"/>
<path d="M181.333 21.3333H170.667V32H181.333V21.3333Z" fill="black"/>
<path d="M192 21.3333H181.333V32H192V21.3333Z" fill="black"/>
<path d="M202.667 21.3333H192V32H202.667V21.3333Z" fill="black"/>
<path d="M224 21.3333H213.333V32H224V21.3333Z" fill="black"/>
<path d="M10.6667 32H0V42.6667H10.6667V32Z" fill="black"/>
<path d="M32 32H21.3333V42.6667H32V32Z" fill="black"/>
<path d="M42.6667 32H32V42.6667H42.6667V32Z" fill="black"/>
<path d="M53.3333 32H42.6667V42.6667H53.3333V32Z" fill="black"/>
<path d="M74.6667 32H64V42.6667H74.6667V32Z" fill="black"/>
<path d="M96 32H85.3333V42.6667H96V32Z" fill="black"/>
<path d="M128 32H117.333V42.6667H128V32Z" fill="black"/>
<path d="M138.667 32H128V42.6667H138.667V32Z" fill="black"/>
<path d="M160 32H149.333V42.6667H160V32Z" fill="black"/>
<path d="M181.333 32H170.667V42.6667H181.333V32Z" fill="black"/>
<path d="M192 32H181.333V42.6667H192V32Z" fill="black"/>
<path d="M202.667 32H192V42.6667H202.667V32Z" fill="black"/>
<path d="M224 32H213.333V42.6667H224V32Z" fill="black"/>
<path d="M10.6667 42.6667H0V53.3333H10.6667V42.6667Z" fill="black"/>
<path d="M32 42.6667H21.3333V53.3333H32V42.6667Z" fill="black"/>
<path d="M42.6667 42.6667H32V53.3333H42.6667V42.6667Z" fill="black"/>
<path d="M53.3333 42.6667H42.6667V53.3333H53.3333V42.6667Z" fill="black"/>
<path d="M74.6667 42.6667H64V53.3333H74.6667V42.6667Z" fill="black"/>
<path d="M96 42.6667H85.3333V53.3333H96V42.6667Z" fill="black"/>
<path d="M128 42.6667H117.333V53.3333H128V42.6667Z" fill="black"/>
<path d="M138.667 42.6667H128V53.3333H138.667V42.6667Z" fill="black"/>
<path d="M160 42.6667H149.333V53.3333H160V42.6667Z" fill="black"/>
<path d="M181.333 42.6667H170.667V53.3333H181.333V42.6667Z" fill="black"/>
<path d="M192 42.6667H181.333V53.3333H192V42.6667Z" fill="black"/>
<path d="M202.667 42.6667H192V53.3333H202.667V42.6667Z" fill="black"/>
<path d="M224 42.6667H213.333V53.3333H224V42.6667Z" fill="black"/>
<path d="M10.6667 53.3333H0V64H10.6667V53.3333Z" fill="black"/>
<path d="M74.6667 53.3333H64V64H74.6667V53.3333Z" fill="black"/>
<path d="M96 53.3333H85.3333V64H96V53.3333Z" fill="black"/>
<path d="M128 53.3333H117.333V64H128V53.3333Z" fill="black"/>
<path d="M160 53.3333H149.333V64H160V53.3333Z" fill="black"/>
<path d="M224 53.3333H213.333V64H224V53.3333Z" fill="black"/>
<path d="M10.6667 64H0V74.6667H10.6667V64Z" fill="black"/>
<path d="M21.3333 64H10.6667V74.6667H21.3333V64Z" fill="black"/>
<path d="M32 64H21.3333V74.6667H32V64Z" fill="black"/>
<path d="M42.6667 64H32V74.6667H42.6667V64Z" fill="black"/>
<path d="M53.3333 64H42.6667V74.6667H53.3333V64Z" fill="black"/>
<path d="M64 64H53.3333V74.6667H64V64Z" fill="black"/>
<path d="M74.6667 64H64V74.6667H74.6667V64Z" fill="black"/>
<path d="M96 64H85.3333V74.6667H96V64Z" fill="black"/>
<path d="M117.333 64H106.667V74.6667H117.333L117.333 64Z" fill="black"/>
<path d="M138.667 64H128V74.6667H138.667V64Z" fill="black"/>
<path d="M160 64H149.333V74.6667H160V64Z" fill="black"/>
<path d="M170.667 64H160V74.6667H170.667V64Z" fill="black"/>
<path d="M181.333 64H170.667V74.6667H181.333V64Z" fill="black"/>
<path d="M192 64H181.333V74.6667H192V64Z" fill="black"/>
<path d="M202.667 64H192V74.6667H202.667V64Z" fill="black"/>
<path d="M213.333 64H202.667V74.6667H213.333V64Z" fill="black"/>
<path d="M224 64H213.333V74.6667H224V64Z" fill="black"/>
<path d="M106.667 74.6667H96L96 85.3333H106.667L106.667 74.6667Z" fill="black"/>
<path d="M117.333 74.6667H106.667L106.667 85.3333H117.333V74.6667Z" fill="black"/>
<path d="M32 85.3333H21.3333V96H32V85.3333Z" fill="black"/>
<path d="M42.6667 85.3333H32V96H42.6667V85.3333Z" fill="black"/>
<path d="M53.3333 85.3333H42.6667V96H53.3333V85.3333Z" fill="black"/>
<path d="M64 85.3333H53.3333V96H64V85.3333Z" fill="black"/>
<path d="M74.6667 85.3333H64V96H74.6667V85.3333Z" fill="black"/>
<path d="M85.3333 85.3333H74.6667V96H85.3333V85.3333Z" fill="black"/>
<path d="M106.667 85.3333H96V96H106.667V85.3333Z" fill="black"/>
<path d="M138.667 85.3333H128V96H138.667V85.3333Z" fill="black"/>
<path d="M149.333 85.3333H138.667V96H149.333V85.3333Z" fill="black"/>
<path d="M170.667 85.3333H160V96H170.667V85.3333Z" fill="black"/>
<path d="M181.333 85.3333H170.667V96H181.333V85.3333Z" fill="black"/>
<path d="M192 85.3333H181.333V96H192V85.3333Z" fill="black"/>
<path d="M202.667 85.3333H192V96H202.667V85.3333Z" fill="black"/>
<path d="M224 85.3333H213.333V96H224V85.3333Z" fill="black"/>
<path d="M21.3333 96L10.6667 96V106.667H21.3333V96Z" fill="black"/>
<path d="M32 96H21.3333V106.667H32V96Z" fill="black"/>
<path d="M96 96H85.3333L85.3333 106.667H96L96 96Z" fill="black"/>
<path d="M106.667 96H96L96 106.667H106.667V96Z" fill="black"/>
<path d="M128 96L117.333 96V106.667H128V96Z" fill="black"/>
<path d="M149.333 96H138.667V106.667H149.333V96Z" fill="black"/>
<path d="M160 96H149.333V106.667H160V96Z" fill="black"/>
<path d="M170.667 96H160V106.667H170.667V96Z" fill="black"/>
<path d="M181.333 96H170.667V106.667H181.333V96Z" fill="black"/>
<path d="M192 96H181.333V106.667H192V96Z" fill="black"/>
<path d="M213.333 96H202.667V106.667H213.333V96Z" fill="black"/>
<path d="M21.3333 106.667H10.6667V117.333H21.3333V106.667Z" fill="black"/>
<path d="M32 106.667H21.3333V117.333H32V106.667Z" fill="black"/>
<path d="M64 106.667H53.3333V117.333H64V106.667Z" fill="black"/>
<path d="M74.6667 106.667H64V117.333H74.6667V106.667Z" fill="black"/>
<path d="M85.3333 106.667L74.6667 106.667V117.333H85.3333L85.3333 106.667Z" fill="black"/>
<path d="M117.333 106.667H106.667L106.667 117.333H117.333L117.333 106.667Z" fill="black"/>
<path d="M138.667 106.667H128V117.333H138.667V106.667Z" fill="black"/>
<path d="M149.333 106.667H138.667V117.333H149.333V106.667Z" fill="black"/>
<path d="M181.333 106.667H170.667V117.333H181.333V106.667Z" fill="black"/>
<path d="M192 106.667H181.333V117.333H192V106.667Z" fill="black"/>
<path d="M202.667 106.667H192V117.333H202.667V106.667Z" fill="black"/>
<path d="M213.333 106.667H202.667V117.333H213.333V106.667Z" fill="black"/>
<path d="M224 106.667L213.333 106.667V117.333H224V106.667Z" fill="black"/>
<path d="M32 117.333H21.3333V128H32V117.333Z" fill="black"/>
<path d="M53.3333 117.333L42.6667 117.333V128H53.3333V117.333Z" fill="black"/>
<path d="M85.3333 117.333H74.6667V128H85.3333V117.333Z" fill="black"/>
<path d="M117.333 117.333H106.667V128H117.333V117.333Z" fill="black"/>
<path d="M138.667 117.333H128V128H138.667V117.333Z" fill="black"/>
<path d="M149.333 117.333H138.667V128H149.333V117.333Z" fill="black"/>
<path d="M170.667 117.333L160 117.333V128H170.667V117.333Z" fill="black"/>
<path d="M202.667 117.333H192V128H202.667V117.333Z" fill="black"/>
<path d="M224 117.333H213.333V128H224V117.333Z" fill="black"/>
<path d="M10.6667 128H0V138.667H10.6667V128Z" fill="black"/>
<path d="M21.3333 128H10.6667V138.667H21.3333V128Z" fill="black"/>
<path d="M53.3333 128H42.6667V138.667H53.3333V128Z" fill="black"/>
<path d="M64 128H53.3333V138.667H64V128Z" fill="black"/>
<path d="M74.6667 128H64V138.667H74.6667V128Z" fill="black"/>
<path d="M85.3333 128H74.6667V138.667H85.3333V128Z" fill="black"/>
<path d="M96 128H85.3333V138.667H96V128Z" fill="black"/>
<path d="M106.667 128H96V138.667H106.667L106.667 128Z" fill="black"/>
<path d="M149.333 128H138.667V138.667H149.333V128Z" fill="black"/>
<path d="M160 128H149.333V138.667H160V128Z" fill="black"/>
<path d="M170.667 128H160V138.667H170.667V128Z" fill="black"/>
<path d="M181.333 128H170.667V138.667H181.333V128Z" fill="black"/>
<path d="M192 128H181.333V138.667H192V128Z" fill="black"/>
<path d="M117.333 138.667H106.667L106.667 149.333H117.333V138.667Z" fill="black"/>
<path d="M128 138.667H117.333V149.333H128V138.667Z" fill="black"/>
<path d="M138.667 138.667H128V149.333H138.667V138.667Z" fill="black"/>
<path d="M170.667 138.667H160V149.333H170.667V138.667Z" fill="black"/>
<path d="M202.667 138.667H192V149.333H202.667V138.667Z" fill="black"/>
<path d="M10.6667 149.333H0V160H10.6667V149.333Z" fill="black"/>
<path d="M21.3333 149.333H10.6667V160H21.3333V149.333Z" fill="black"/>
<path d="M32 149.333H21.3333V160H32V149.333Z" fill="black"/>
<path d="M42.6667 149.333H32V160H42.6667V149.333Z" fill="black"/>
<path d="M53.3333 149.333H42.6667V160H53.3333V149.333Z" fill="black"/>
<path d="M64 149.333H53.3333V160H64V149.333Z" fill="black"/>
<path d="M74.6667 149.333H64V160H74.6667V149.333Z" fill="black"/>
<path d="M96 149.333H85.3333V160H96V149.333Z" fill="black"/>
<path d="M138.667 149.333H128V160H138.667V149.333Z" fill="black"/>
<path d="M181.333 149.333H170.667V160H181.333V149.333Z" fill="black"/>
<path d="M192 149.333H181.333V160H192V149.333Z" fill="black"/>
<path d="M10.6667 160H0V170.667H10.6667V160Z" fill="black"/>
<path d="M74.6667 160H64V170.667H74.6667V160Z" fill="black"/>
<path d="M96 160H85.3333V170.667H96V160Z" fill="black"/>
<path d="M106.667 160H96V170.667H106.667V160Z" fill="black"/>
<path d="M128 160H117.333V170.667H128V160Z" fill="black"/>
<path d="M138.667 160H128V170.667H138.667V160Z" fill="black"/>
<path d="M149.333 160H138.667V170.667H149.333V160Z" fill="black"/>
<path d="M160 160H149.333V170.667H160V160Z" fill="black"/>
<path d="M181.333 160H170.667V170.667H181.333V160Z" fill="black"/>
<path d="M192 160H181.333V170.667H192V160Z" fill="black"/>
<path d="M213.333 160H202.667V170.667H213.333V160Z" fill="black"/>
<path d="M10.6667 170.667H0V181.333H10.6667V170.667Z" fill="black"/>
<path d="M32 170.667H21.3333V181.333H32V170.667Z" fill="black"/>
<path d="M42.6667 170.667H32V181.333H42.6667V170.667Z" fill="black"/>
<path d="M53.3333 170.667H42.6667V181.333H53.3333V170.667Z" fill="black"/>
<path d="M74.6667 170.667H64V181.333H74.6667V170.667Z" fill="black"/>
<path d="M96 170.667H85.3333V181.333H96V170.667Z" fill="black"/>
<path d="M106.667 170.667H96V181.333H106.667V170.667Z" fill="black"/>
<path d="M149.333 170.667H138.667V181.333H149.333V170.667Z" fill="black"/>
<path d="M192 170.667H181.333V181.333H192V170.667Z" fill="black"/>
<path d="M10.6667 181.333H0V192H10.6667V181.333Z" fill="black"/>
<path d="M32 181.333H21.3333V192H32V181.333Z" fill="black"/>
<path d="M42.6667 181.333H32V192H42.6667V181.333Z" fill="black"/>
<path d="M53.3333 181.333H42.6667V192H53.3333V181.333Z" fill="black"/>
<path d="M74.6667 181.333H64V192H74.6667V181.333Z" fill="black"/>
<path d="M96 181.333H85.3333V192H96V181.333Z" fill="black"/>
<path d="M106.667 181.333H96V192H106.667V181.333Z" fill="black"/>
<path d="M117.333 181.333H106.667V192H117.333V181.333Z" fill="black"/>
<path d="M128 181.333H117.333V192H128V181.333Z" fill="black"/>
<path d="M138.667 181.333H128V192H138.667V181.333Z" fill="black"/>
<path d="M170.667 181.333H160V192H170.667V181.333Z" fill="black"/>
<path d="M192 181.333H181.333V192H192V181.333Z" fill="black"/>
<path d="M202.667 181.333H192V192H202.667V181.333Z" fill="black"/>
<path d="M213.333 181.333H202.667V192H213.333V181.333Z" fill="black"/>
<path d="M224 181.333H213.333V192H224V181.333Z" fill="black"/>
<path d="M10.6667 192H0V202.667H10.6667V192Z" fill="black"/>
<path d="M32 192H21.3333V202.667H32V192Z" fill="black"/>
<path d="M42.6667 192H32V202.667H42.6667V192Z" fill="black"/>
<path d="M53.3333 192H42.6667V202.667H53.3333V192Z" fill="black"/>
<path d="M74.6667 192H64V202.667H74.6667V192Z" fill="black"/>
<path d="M96 192H85.3333V202.667H96V192Z" fill="black"/>
<path d="M106.667 192H96V202.667H106.667V192Z" fill="black"/>
<path d="M117.333 192H106.667V202.667H117.333V192Z" fill="black"/>
<path d="M128 192H117.333V202.667H128V192Z" fill="black"/>
<path d="M149.333 192H138.667V202.667H149.333V192Z" fill="black"/>
<path d="M170.667 192H160V202.667H170.667V192Z" fill="black"/>
<path d="M192 192H181.333V202.667H192V192Z" fill="black"/>
<path d="M202.667 192H192V202.667H202.667V192Z" fill="black"/>
<path d="M213.333 192H202.667V202.667H213.333V192Z" fill="black"/>
<path d="M10.6667 202.667H0V213.333H10.6667V202.667Z" fill="black"/>
<path d="M74.6667 202.667H64V213.333H74.6667V202.667Z" fill="black"/>
<path d="M117.333 202.667H106.667L106.667 213.333H117.333V202.667Z" fill="black"/>
<path d="M128 202.667H117.333V213.333H128V202.667Z" fill="black"/>
<path d="M160 202.667H149.333V213.333H160V202.667Z" fill="black"/>
<path d="M224 202.667H213.333V213.333H224V202.667Z" fill="black"/>
<path d="M10.6667 213.333H0V224H10.6667V213.333Z" fill="black"/>
<path d="M21.3333 213.333H10.6667V224H21.3333V213.333Z" fill="black"/>
<path d="M32 213.333H21.3333V224H32V213.333Z" fill="black"/>
<path d="M42.6667 213.333H32V224H42.6667V213.333Z" fill="black"/>
<path d="M53.3333 213.333H42.6667V224H53.3333V213.333Z" fill="black"/>
<path d="M64 213.333H53.3333V224H64V213.333Z" fill="black"/>
<path d="M74.6667 213.333H64V224H74.6667V213.333Z" fill="black"/>
<path d="M106.667 213.333H96V224H106.667L106.667 213.333Z" fill="black"/>
<path d="M128 213.333H117.333L117.333 224H128V213.333Z" fill="black"/>
<path d="M138.667 213.333H128V224H138.667V213.333Z" fill="black"/>
<path d="M149.333 213.333H138.667V224H149.333V213.333Z" fill="black"/>
<path d="M170.667 213.333H160V224H170.667V213.333Z" fill="black"/>
<path d="M181.333 213.333H170.667V224H181.333V213.333Z" fill="black"/>
</svg>
