<svg width="14" height="14" viewBox="0 0 14 14" fill="none" xmlns="http://www.w3.org/2000/svg">
<path d="M7.59961 6.49961V3.59961C7.59961 3.42961 7.54245 3.28711 7.42813 3.17211C7.31379 3.05711 7.17213 2.99961 7.00313 2.99961C6.83412 2.99961 6.69128 3.05711 6.57461 3.17211C6.45794 3.28711 6.39961 3.42961 6.39961 3.59961V6.74961C6.39961 6.8385 6.41628 6.91905 6.44961 6.99128C6.48294 7.0635 6.52739 7.12739 6.58294 7.18294L8.81371 9.41371C8.93764 9.53764 9.08017 9.59683 9.24128 9.59128C9.40239 9.58572 9.54405 9.52183 9.66628 9.39961C9.7885 9.27739 9.84961 9.13572 9.84961 8.97461C9.84961 8.8135 9.78663 8.67043 9.66068 8.54541L7.59961 6.49961ZM6.99961 13.3996C6.11765 13.3996 5.28883 13.2329 4.51314 12.8996C3.73745 12.5663 3.05794 12.1079 2.47461 11.5246C1.89128 10.9413 1.43294 10.261 1.09961 9.48364C0.766276 8.70632 0.599609 7.87577 0.599609 6.99198C0.599609 6.10818 0.766276 5.27739 1.09961 4.49961C1.43294 3.72183 1.89128 3.04405 2.47461 2.46628C3.05794 1.8885 3.73827 1.43294 4.51558 1.09961C5.2929 0.766276 6.12345 0.599609 7.00724 0.599609C7.89104 0.599609 8.72186 0.767609 9.49971 1.10361C10.2776 1.43961 10.9542 1.89561 11.5296 2.47161C12.105 3.04761 12.5605 3.72494 12.8961 4.50361C13.2318 5.28228 13.3996 6.11428 13.3996 6.99961C13.3996 7.88157 13.2329 8.71039 12.8996 9.48608C12.5663 10.2618 12.1107 10.9413 11.5329 11.5246C10.9552 12.1079 10.2767 12.5663 9.49743 12.8996C8.71819 13.2329 7.88559 13.3996 6.99961 13.3996ZM7.00756 12.1996C8.44619 12.1996 9.67119 11.6913 10.6826 10.6746C11.6939 9.65794 12.1996 8.43029 12.1996 6.99166C12.1996 5.55303 11.6939 4.32803 10.6826 3.31666C9.67119 2.30529 8.44619 1.79961 7.00756 1.79961C5.56893 1.79961 4.34128 2.30529 3.32461 3.31666C2.30794 4.32803 1.79961 5.55303 1.79961 6.99166C1.79961 8.43029 2.30794 9.65794 3.32461 10.6746C4.34128 11.6913 5.56893 12.1996 7.00756 12.1996Z" fill="#FFC300"/>
</svg>
