<svg width="16" height="15" viewBox="0 0 16 15" fill="none" xmlns="http://www.w3.org/2000/svg">
<path d="M13.6875 14.3958L9.125 9.83333C8.66667 10.1806 8.17014 10.441 7.63542 10.6146C7.10069 10.7882 6.54167 10.875 5.95833 10.875C4.44444 10.875 3.15625 10.3507 2.09375 9.30208C1.03125 8.25347 0.5 6.97222 0.5 5.45833C0.5 3.94444 1.03125 2.65625 2.09375 1.59375C3.15625 0.53125 4.44444 0 5.95833 0C7.47222 0 8.75347 0.53125 9.80208 1.59375C10.8507 2.65625 11.375 3.94444 11.375 5.45833C11.375 6.04167 11.2917 6.60069 11.125 7.13542C10.9583 7.67014 10.6944 8.15972 10.3333 8.60417L14.9167 13.2083C15.0833 13.375 15.1632 13.5729 15.1562 13.8021C15.1493 14.0313 15.0625 14.2292 14.8958 14.3958C14.7292 14.5625 14.5278 14.6458 14.2917 14.6458C14.0556 14.6458 13.8542 14.5625 13.6875 14.3958ZM5.95833 9.125C6.97222 9.125 7.83681 8.76736 8.55208 8.05208C9.26736 7.33681 9.625 6.47222 9.625 5.45833C9.625 4.43056 9.27083 3.55556 8.5625 2.83333C7.85417 2.11111 6.98611 1.75 5.95833 1.75C4.93056 1.75 4.05556 2.11111 3.33333 2.83333C2.61111 3.55556 2.25 4.43056 2.25 5.45833C2.25 6.48611 2.61111 7.35417 3.33333 8.0625C4.05556 8.77083 4.93056 9.125 5.95833 9.125Z" fill="#96989C"/>
</svg>
