<svg width="16" height="16" viewBox="0 0 16 16" fill="none" xmlns="http://www.w3.org/2000/svg">
<path d="M10.625 7.25C10.9375 7.25 11.2031 7.14062 11.4219 6.92188C11.6406 6.70312 11.75 6.4375 11.75 6.125C11.75 5.8125 11.6406 5.54688 11.4219 5.32812C11.2031 5.10938 10.9375 5 10.625 5C10.3125 5 10.0469 5.10938 9.82812 5.32812C9.60938 5.54688 9.5 5.8125 9.5 6.125C9.5 6.4375 9.60938 6.70312 9.82812 6.92188C10.0469 7.14062 10.3125 7.25 10.625 7.25ZM5.375 7.25C5.6875 7.25 5.95312 7.14062 6.17188 6.92188C6.39062 6.70312 6.5 6.4375 6.5 6.125C6.5 5.8125 6.39062 5.54688 6.17188 5.32812C5.95312 5.10938 5.6875 5 5.375 5C5.0625 5 4.79688 5.10938 4.57812 5.32812C4.35938 5.54688 4.25 5.8125 4.25 6.125C4.25 6.4375 4.35938 6.70312 4.57812 6.92188C4.79688 7.14062 5.0625 7.25 5.375 7.25ZM8 12.125C8.85 12.125 9.62188 11.8844 10.3156 11.4031C11.0094 10.9219 11.5125 10.2875 11.825 9.5H10.5875C10.3125 9.9625 9.94688 10.3281 9.49063 10.5969C9.03438 10.8656 8.5375 11 8 11C7.4625 11 6.96562 10.8656 6.50937 10.5969C6.05312 10.3281 5.6875 9.9625 5.4125 9.5H4.175C4.4875 10.2875 4.99062 10.9219 5.68437 11.4031C6.37812 11.8844 7.15 12.125 8 12.125ZM8 15.5C6.9625 15.5 5.9875 15.3031 5.075 14.9094C4.1625 14.5156 3.36875 13.9813 2.69375 13.3063C2.01875 12.6313 1.48438 11.8375 1.09063 10.925C0.696875 10.0125 0.5 9.0375 0.5 8C0.5 6.9625 0.696875 5.9875 1.09063 5.075C1.48438 4.1625 2.01875 3.36875 2.69375 2.69375C3.36875 2.01875 4.1625 1.48438 5.075 1.09063C5.9875 0.696875 6.9625 0.5 8 0.5C9.0375 0.5 10.0125 0.696875 10.925 1.09063C11.8375 1.48438 12.6313 2.01875 13.3063 2.69375C13.9813 3.36875 14.5156 4.1625 14.9094 5.075C15.3031 5.9875 15.5 6.9625 15.5 8C15.5 9.0375 15.3031 10.0125 14.9094 10.925C14.5156 11.8375 13.9813 12.6313 13.3063 13.3063C12.6313 13.9813 11.8375 14.5156 10.925 14.9094C10.0125 15.3031 9.0375 15.5 8 15.5Z" fill="#2E8316"/>
</svg>
