<svg width="18" height="13" viewBox="0 0 18 13" fill="none" xmlns="http://www.w3.org/2000/svg">
<path d="M5 12.5H1C0.716667 12.5 0.479167 12.4042 0.2875 12.2125C0.0958333 12.0208 0 11.7833 0 11.5C0 11.2167 0.0958333 10.9792 0.2875 10.7875C0.479167 10.5958 0.716667 10.5 1 10.5H5C5.28333 10.5 5.52083 10.5958 5.7125 10.7875C5.90417 10.9792 6 11.2167 6 11.5C6 11.7833 5.90417 12.0208 5.7125 12.2125C5.52083 12.4042 5.28333 12.5 5 12.5ZM17 2.5H1C0.716667 2.5 0.479167 2.40417 0.2875 2.2125C0.0958333 2.02083 0 1.78333 0 1.5C0 1.21667 0.0958333 0.979167 0.2875 0.7875C0.479167 0.595833 0.716667 0.5 1 0.5H17C17.2833 0.5 17.5208 0.595833 17.7125 0.7875C17.9042 0.979167 18 1.21667 18 1.5C18 1.78333 17.9042 2.02083 17.7125 2.2125C17.5208 2.40417 17.2833 2.5 17 2.5ZM11 7.5H1C0.716667 7.5 0.479167 7.40417 0.2875 7.2125C0.0958333 7.02083 0 6.78333 0 6.5C0 6.21667 0.0958333 5.97917 0.2875 5.7875C0.479167 5.59583 0.716667 5.5 1 5.5H11C11.2833 5.5 11.5208 5.59583 11.7125 5.7875C11.9042 5.97917 12 6.21667 12 6.5C12 6.78333 11.9042 7.02083 11.7125 7.2125C11.5208 7.40417 11.2833 7.5 11 7.5Z" fill="#F9FAFB"/>
</svg>
