<svg width="16" height="17" viewBox="0 0 16 17" fill="none" xmlns="http://www.w3.org/2000/svg">
<path d="M8.00031 13.2996L4.30031 16.1246C4.11697 16.2746 3.91697 16.3454 3.70031 16.3371C3.48364 16.3288 3.29197 16.2663 3.12531 16.1496C2.95864 16.0329 2.82947 15.8746 2.73781 15.6746C2.64614 15.4746 2.64197 15.2579 2.72531 15.0246L4.15031 10.3996L0.525307 7.82461C0.325307 7.69128 0.200307 7.51628 0.150307 7.29961C0.100307 7.08294 0.10864 6.88294 0.175307 6.69961C0.241974 6.51628 0.35864 6.35378 0.525307 6.21211C0.691974 6.07044 0.891974 5.99961 1.12531 5.99961H5.60031L7.05031 1.19961C7.13364 0.966276 7.26281 0.787109 7.43781 0.662109C7.61281 0.537109 7.80031 0.474609 8.00031 0.474609C8.20031 0.474609 8.38781 0.537109 8.56281 0.662109C8.73781 0.787109 8.86697 0.966276 8.95031 1.19961L10.4003 5.99961H14.8753C15.1086 5.99961 15.3086 6.07044 15.4753 6.21211C15.642 6.35378 15.7586 6.51628 15.8253 6.69961C15.892 6.88294 15.9003 7.08294 15.8503 7.29961C15.8003 7.51628 15.6753 7.69128 15.4753 7.82461L11.8503 10.3996L13.2753 15.0246C13.3586 15.2579 13.3545 15.4746 13.2628 15.6746C13.1711 15.8746 13.042 16.0329 12.8753 16.1496C12.7086 16.2663 12.517 16.3288 12.3003 16.3371C12.0836 16.3454 11.8836 16.2746 11.7003 16.1246L8.00031 13.2996Z" fill="#FFC300"/>
</svg>
