<svg width="12" height="13" viewBox="0 0 12 13" fill="none" xmlns="http://www.w3.org/2000/svg">
<path d="M2.95033 12.984C2.7281 12.9284 2.58644 12.7895 2.52533 12.5673C2.46421 12.3451 2.51144 12.1562 2.66699 12.0007L3.00033 11.6673C2.34477 11.6673 1.79199 11.4423 1.34199 10.9923C0.891992 10.5423 0.666992 9.98954 0.666992 9.33398V3.00065C0.666992 2.41176 0.81977 1.94232 1.12533 1.59232C1.43088 1.24232 1.83366 0.975651 2.33366 0.792318C2.83366 0.608984 3.4031 0.486762 4.04199 0.425651C4.68088 0.36454 5.33366 0.333984 6.00033 0.333984C6.73366 0.333984 7.42533 0.36454 8.07533 0.425651C8.72533 0.486762 9.29199 0.608984 9.77533 0.792318C10.2587 0.975651 10.6392 1.24232 10.917 1.59232C11.1948 1.94232 11.3337 2.41176 11.3337 3.00065V9.33398C11.3337 9.98954 11.1087 10.5423 10.6587 10.9923C10.2087 11.4423 9.65588 11.6673 9.00033 11.6673L9.33366 12.0007C9.48921 12.1562 9.53644 12.3451 9.47533 12.5673C9.41422 12.7895 9.27255 12.9284 9.05033 12.984C8.95033 13.0062 8.8531 13.0062 8.75866 12.984C8.66422 12.9618 8.5781 12.9118 8.50033 12.834L7.33366 11.6673H4.66699L3.50033 12.834C3.42255 12.9118 3.33644 12.9618 3.24199 12.984C3.14755 13.0062 3.05033 13.0062 2.95033 12.984ZM6.00033 1.73398C4.86699 1.73398 4.0281 1.7951 3.48366 1.91732C2.93921 2.03954 2.55588 2.17843 2.33366 2.33398H9.66699C9.48921 2.17843 9.12255 2.03954 8.56699 1.91732C8.01144 1.7951 7.15588 1.73398 6.00033 1.73398ZM2.06699 5.56732H5.30033V3.73398H2.06699V5.56732ZM6.70033 5.56732H9.93366V3.73398H6.70033V5.56732ZM3.71699 9.63398C4.01069 9.63398 4.25356 9.53797 4.44561 9.34593C4.63764 9.15389 4.73366 8.91102 4.73366 8.61732C4.73366 8.32362 4.63764 8.08075 4.44561 7.8887C4.25356 7.69667 4.01069 7.60065 3.71699 7.60065C3.42329 7.60065 3.18042 7.69667 2.98838 7.8887C2.79634 8.08075 2.70033 8.32362 2.70033 8.61732C2.70033 8.91102 2.79634 9.15389 2.98838 9.34593C3.18042 9.53797 3.42329 9.63398 3.71699 9.63398ZM8.28366 9.63398C8.57736 9.63398 8.82023 9.53797 9.01228 9.34593C9.20431 9.15389 9.30033 8.91102 9.30033 8.61732C9.30033 8.32362 9.20431 8.08075 9.01228 7.8887C8.82023 7.69667 8.57736 7.60065 8.28366 7.60065C7.98996 7.60065 7.74709 7.69667 7.55504 7.8887C7.36301 8.08075 7.26699 8.32362 7.26699 8.61732C7.26699 8.91102 7.36301 9.15389 7.55504 9.34593C7.74709 9.53797 7.98996 9.63398 8.28366 9.63398ZM3.00033 10.2673H9.00033C9.25588 10.2673 9.47533 10.1784 9.65866 10.0007C9.84199 9.82287 9.93366 9.60621 9.93366 9.35065V6.96732H2.06699V9.35065C2.06699 9.60621 2.15866 9.82287 2.34199 10.0007C2.52533 10.1784 2.74477 10.2673 3.00033 10.2673Z" fill="#1C1B1F"/>
</svg>
