<svg width="218" height="261" viewBox="0 0 218 261" fill="none" xmlns="http://www.w3.org/2000/svg">
<g clip-path="url(#clip0_131_3319)">
<path d="M140.153 193.236C140.642 193.512 141.2 193.623 141.751 193.553C142.302 193.483 142.819 193.236 143.232 192.846C143.646 192.456 143.935 191.941 144.062 191.371C144.189 190.802 144.147 190.205 143.941 189.661C143.996 189.372 144.036 189.164 144.091 188.875C145.149 187.833 146.478 187.148 147.908 186.908C149.338 186.668 150.803 186.884 152.116 187.528C153.429 188.172 154.529 189.215 155.276 190.523C156.024 191.832 156.383 193.346 156.31 194.871C155.975 203.473 156.377 212.756 150.957 219.691C175.695 198.366 186.974 162.039 179.42 129.366C175.713 123.917 173.984 116.678 175.646 110.119C177.732 112.259 181.798 111.684 181.177 107.979C180.844 106.515 180.499 105.055 180.165 103.59C194.413 97.7254 198.133 120.074 181.256 129.173C182.625 135.385 183.375 141.731 183.493 148.107C185.398 142.358 188.57 137.168 192.748 132.964C196.793 129.122 202.141 126.863 207.117 124.285C213.172 121.141 219.891 127.375 217.507 134.03C213.477 133.486 210.625 138.568 214.282 141.299C207.858 152.681 195.541 159.914 183.026 160.029C181.76 173.016 177.885 185.568 171.66 196.851C179.654 184.026 195.126 187.719 207.353 187.172C208.165 187.064 208.988 187.208 209.723 187.585C210.459 187.963 211.074 188.558 211.494 189.298C211.914 190.038 212.121 190.89 212.09 191.752C212.058 192.614 211.79 193.448 211.317 194.152C209.708 194.052 208.094 194.121 206.499 194.358C205.748 194.476 205.051 194.835 204.501 195.387C203.952 195.939 203.578 196.657 203.43 197.442C203.283 198.227 203.369 199.041 203.678 199.772C203.986 200.503 204.501 201.116 205.152 201.526C194.426 211.899 177.806 214.129 164.762 207.51C160.905 212.635 156.554 217.323 151.779 221.499L132.385 211.747C132.419 211.484 132.462 211.218 132.502 210.959C134.244 211.981 136.097 212.774 138.021 213.321C135.952 205.001 133.647 200.128 140.152 193.236H140.153Z" fill="#F2F2F2"/>
<path d="M105.885 173.555C105.531 174.005 105.054 174.329 104.519 174.484C103.984 174.638 103.417 174.616 102.894 174.419C102.372 174.222 101.919 173.86 101.598 173.383C101.277 172.906 101.103 172.336 101.099 171.751C100.945 171.505 100.834 171.329 100.679 171.083C99.3264 170.539 97.8504 170.433 96.4403 170.78C95.0303 171.127 93.7505 171.91 92.7651 173.029C91.7796 174.147 91.1334 175.551 90.9092 177.06C90.6851 178.569 90.8931 180.114 91.5068 181.498C94.8931 189.331 97.8392 198.088 105.339 202.355C74.8035 192.449 51.368 163.293 46.6816 130.028C48.1662 123.506 47.1794 116.114 43.2943 110.7C42.1277 113.513 38.1561 114.598 37.4067 110.92C37.1919 109.431 36.9894 107.942 36.7745 106.453C21.4819 106.69 26.028 128.868 44.9122 130.58C45.8653 136.877 47.4398 143.053 49.6102 149.005C45.7899 144.439 40.9964 140.894 35.6241 138.663C30.5044 136.715 24.7434 136.751 19.2136 136.343C12.4818 135.84 8.48786 144.288 13.0754 149.503C16.6136 147.395 21.0721 150.967 18.6613 154.952C28.6801 162.936 42.6743 164.734 54.3058 159.861C60.1214 171.384 68.1985 181.468 77.9987 189.439C66.009 180.743 53.0003 190.32 41.481 194.679C40.6911 194.902 39.9797 195.362 39.4337 196.004C38.8877 196.647 38.5307 197.442 38.4061 198.295C38.2815 199.147 38.3948 200.02 38.7322 200.805C39.0695 201.591 39.6164 202.256 40.306 202.72C41.7601 201.988 43.2795 201.409 44.842 200.994C45.5789 200.804 46.3536 200.859 47.0597 201.152C47.7658 201.445 48.3688 201.96 48.7861 202.629C49.2034 203.297 49.4145 204.085 49.3904 204.885C49.3664 205.685 49.1085 206.458 48.652 207.097C62.2946 212.436 78.4845 207.887 88.1985 196.566C93.6027 199.778 99.3086 202.388 105.224 204.355L119.698 187.607C119.573 187.377 119.438 187.148 119.308 186.924C118.061 188.564 116.628 190.035 115.042 191.307C113.983 182.779 114.375 177.348 105.886 173.555L105.885 173.555Z" fill="#F2F2F2"/>
<path d="M109.61 102.784C110.162 102.725 110.684 102.489 111.104 102.107C111.524 101.725 111.823 101.216 111.96 100.649C112.097 100.082 112.065 99.4841 111.87 98.9366C111.674 98.3891 111.323 97.9183 110.865 97.5881C110.758 97.3157 110.681 97.12 110.574 96.8475C110.902 95.3599 111.643 94.0094 112.703 92.9691C113.763 91.9289 115.094 91.2464 116.524 91.009C117.954 90.7716 119.419 90.9902 120.731 91.6368C122.043 92.2834 123.141 93.3285 123.886 94.6381C128.155 101.976 133.395 109.445 132.561 118.39C141.826 86.1381 131.99 49.3472 108.45 26.6671C102.493 24.324 97.2315 19.3319 95.1445 12.9087C98.0074 13.4585 101.079 10.5894 98.6052 7.87918C97.5545 6.85969 96.4965 5.85071 95.4459 4.83116C104.174 -8.41788 119.074 7.94677 109.872 25.4272C114.292 29.7786 118.268 34.6054 121.737 39.829C120.28 33.9355 120.17 27.7613 121.416 21.8143C122.743 16.246 125.989 11.2249 128.757 6.15868C132.121 -0.0129942 140.995 1.2102 142.533 8.13734C138.9 10.0563 139.218 15.9526 143.698 16.0685C144.38 29.2948 137.978 42.5447 127.65 50.0009C133.463 61.5259 136.881 74.2254 137.675 87.2533C137.534 71.905 152.329 65.8701 162.191 58.2249C162.807 57.6581 163.567 57.2929 164.377 57.1737C165.186 57.0546 166.012 57.1866 166.752 57.5537C167.491 57.9208 168.114 58.5072 168.544 59.2412C168.973 59.9753 169.191 60.8253 169.17 61.6876C167.782 62.5511 166.479 63.5578 165.279 64.693C164.718 65.2318 164.329 65.9404 164.165 66.7217C164.001 67.5031 164.07 68.3189 164.362 69.0573C164.655 69.7957 165.156 70.4207 165.799 70.8464C166.441 71.2722 167.193 71.4779 167.95 71.4355C164.529 86.3551 151.91 97.9817 137.583 100.159C137.09 106.682 135.956 113.133 134.198 119.408L112.945 122.719C112.834 122.482 112.729 122.235 112.626 121.997C114.612 121.821 116.569 121.389 118.455 120.711C112.34 115.021 107.851 112.332 109.61 102.784L109.61 102.784Z" fill="#F2F2F2"/>
<path d="M130.986 95.5952C121.31 95.5952 116.062 94.3479 114.229 91.6854C112.612 89.3362 113.696 86.2366 114.951 82.6477C115.854 80.0681 116.876 77.1444 116.876 74.2507C116.876 60.1766 123.641 53.0403 136.983 53.0403C143.621 53.0403 150.748 56.7601 156.048 62.991C160.867 68.6555 163.267 75.4349 162.634 81.5908C162.115 86.6394 159.887 89.9595 155.624 92.0399L155.374 92.1615L155.303 91.8815C154.935 90.4325 154.312 89.0695 153.467 87.8634C153.384 89.7566 152.932 91.6115 152.138 93.3115L152.092 93.4084L151.994 93.4381C147.168 94.8881 141.442 95.2809 136.991 95.4609C134.826 95.5499 132.824 95.5947 130.986 95.5952Z" fill="#2F2E41"/>
<path d="M133.623 115.205C133.252 114.055 132.627 113.015 131.798 112.171C130.97 111.327 129.963 110.703 128.861 110.352C127.759 110.001 126.593 109.932 125.46 110.152C124.328 110.371 123.261 110.872 122.349 111.613L90.5224 131.687L80.5634 106.052C81.4047 104.75 81.8336 103.201 81.7884 101.626C81.7432 100.051 81.2264 98.5311 80.312 97.2852C79.3977 96.0392 78.1328 95.1307 76.6987 94.69C75.2646 94.2493 73.7351 94.299 72.3295 94.832C70.9239 95.365 69.7144 96.354 68.8744 97.6569C68.0345 98.9599 67.6074 100.51 67.6542 102.085C67.7011 103.66 68.2195 105.179 69.1352 106.424C70.0509 107.668 71.3168 108.575 72.7513 109.014C73.3652 116.407 76.7765 149.446 88.6437 148.245C98.6188 147.236 123.391 129.832 131.085 123.798C132.316 122.833 133.225 121.482 133.681 119.938C134.137 118.393 134.117 116.736 133.623 115.205Z" fill="#FFB6B6"/>
<path d="M157.607 261H129.906L125.261 236.771L123.754 261H98.0228C98.0327 241.973 98.9723 222.959 100.838 204.034L101.157 202.888L101.66 201.055L101.979 199.904L107.304 180.615L107.725 179.084H139.788C141.633 180.912 143.335 182.895 144.877 185.013C145.4 185.715 145.945 186.476 146.504 187.295C146.893 187.875 147.295 188.485 147.697 189.124C151.27 194.734 153.94 200.929 155.601 207.457V207.462C155.883 208.579 156.132 209.721 156.349 210.89V210.895C156.544 211.933 156.715 212.987 156.849 214.064C156.95 214.849 157.038 215.644 157.103 216.448C157.488 220.906 157.353 225.396 156.701 229.818L157.607 261Z" fill="#2F2E41"/>
<path d="M10.7389 39.4566C12.5379 38.722 13.6035 37.0562 13.1191 35.7361C12.6346 34.4159 10.7836 33.9413 8.98467 34.6759C7.18573 35.4105 6.12012 37.0762 6.60455 38.3963C7.08898 39.7165 8.94 40.1912 10.7389 39.4566Z" fill="#F9FAFB"/>
<path d="M33.389 36.3915C35.1879 35.6569 36.2535 33.9912 35.7691 32.671C35.2847 31.3509 33.4336 30.8762 31.6347 31.6108C29.8358 32.3454 28.7701 34.0111 29.2546 35.3313C29.739 36.6514 31.59 37.1261 33.389 36.3915Z" fill="#262627"/>
<path d="M8.77459 59.8421C10.5735 59.1075 11.6391 57.4417 11.1547 56.1216C10.6703 54.8014 8.81926 54.3267 7.02032 55.0614C5.22139 55.796 4.15577 57.4617 4.6402 58.7818C5.12462 60.102 6.97566 60.5767 8.77459 59.8421Z" fill="#FF6584"/>
<path d="M2.22213 68.8343C3.04742 68.6282 3.48883 67.4466 3.20803 66.1951C2.92723 64.9436 2.03055 64.0961 1.20526 64.3022C0.379966 64.5082 -0.0614278 65.6898 0.219373 66.9414C0.500173 68.1929 1.39684 69.0404 2.22213 68.8343Z" fill="#F9FAFB"/>
<path d="M2.08736 84.0582C2.91265 83.8521 3.35405 82.6705 3.07325 81.419C2.79245 80.1675 1.89578 79.32 1.07049 79.5261C0.245201 79.7321 -0.196193 80.9137 0.0846072 82.1652C0.365408 83.4167 1.26207 84.2642 2.08736 84.0582Z" fill="#262627"/>
<path d="M21.9666 52.5258C22.7919 52.3197 23.2333 51.1381 22.9525 49.8866C22.6717 48.6351 21.7751 47.7876 20.9498 47.9937C20.1245 48.1998 19.6831 49.3814 19.9639 50.6329C20.2447 51.8844 21.1413 52.7319 21.9666 52.5258Z" fill="#F9FAFB"/>
<path d="M10.0374 49.4698C10.8627 49.2637 11.3041 48.0821 11.0233 46.8306C10.7425 45.5791 9.84586 44.7316 9.02057 44.9377C8.19527 45.1437 7.75388 46.3253 8.03468 47.5768C8.31548 48.8284 9.21214 49.6759 10.0374 49.4698Z" fill="#FF6584"/>
<path d="M22.6815 35.4511C23.5068 35.245 23.9482 34.0634 23.6674 32.8119C23.3866 31.5604 22.4899 30.7129 21.6646 30.919C20.8393 31.1251 20.3979 32.3067 20.6787 33.5582C20.9595 34.8097 21.8562 35.6572 22.6815 35.4511Z" fill="#262627"/>
<path d="M28.5619 140.819C29.4317 139.741 28.9461 137.798 27.4772 136.479C26.0083 135.16 24.1123 134.965 23.2425 136.043C22.3727 137.121 22.8584 139.064 24.3273 140.383C25.7962 141.702 27.6921 141.897 28.5619 140.819Z" fill="#F9FAFB"/>
<path d="M15.2222 121.267C16.092 120.189 15.6064 118.246 14.1374 116.927C12.6685 115.608 10.7726 115.413 9.90281 116.491C9.033 117.569 9.51868 119.512 10.9876 120.831C12.4565 122.15 14.3524 122.345 15.2222 121.267Z" fill="#262627"/>
<path d="M46.4904 132.935C47.3602 131.857 46.8745 129.914 45.4056 128.595C43.9367 127.276 42.0408 127.081 41.171 128.159C40.3012 129.236 40.7869 131.18 42.2558 132.499C43.7247 133.818 45.6206 134.013 46.4904 132.935Z" fill="#FF6584"/>
<path d="M55.397 133.151C56.3066 132.295 56.5861 131.059 56.0213 130.392C55.4566 129.724 54.2615 129.878 53.3519 130.734C52.4424 131.59 52.1629 132.826 52.7276 133.493C53.2924 134.161 54.4875 134.007 55.397 133.151Z" fill="#F9FAFB"/>
<path d="M68.1518 126.027C69.0613 125.171 69.3409 123.935 68.7761 123.268C68.2114 122.6 67.0162 122.754 66.1067 123.61C65.1972 124.466 64.9176 125.702 65.4824 126.369C66.0471 127.037 67.2422 126.884 68.1518 126.027Z" fill="#262627"/>
<path d="M32.4012 122.6C33.3107 121.744 33.5902 120.508 33.0255 119.841C32.4608 119.173 31.2656 119.327 30.3561 120.183C29.4466 121.039 29.167 122.275 29.7318 122.942C30.2965 123.61 31.4916 123.457 32.4012 122.6Z" fill="#F9FAFB"/>
<path d="M35.5339 135.121C36.4434 134.265 36.7229 133.03 36.1582 132.362C35.5935 131.695 34.3983 131.848 33.4888 132.704C32.5792 133.561 32.2997 134.796 32.8645 135.463C33.4292 136.131 34.6243 135.978 35.5339 135.121Z" fill="#FF6584"/>
<path d="M17.8276 130.067C18.7371 129.211 19.0166 127.975 18.4519 127.308C17.8872 126.64 16.692 126.793 15.7825 127.65C14.873 128.506 14.5934 129.742 15.1582 130.409C15.7229 131.076 16.918 130.923 17.8276 130.067Z" fill="#262627"/>
<path d="M118.179 15.4192C119.383 14.7945 119.669 12.8077 118.818 10.9816C117.966 9.15557 116.3 8.18171 115.096 8.80644C113.892 9.43118 113.606 11.4179 114.457 13.244C115.308 15.0701 116.975 16.0439 118.179 15.4192Z" fill="#F9FAFB"/>
<path d="M123.058 38.9526C124.262 38.3279 124.548 36.3411 123.697 34.5151C122.845 32.689 121.179 31.7152 119.975 32.3399C118.771 32.9646 118.485 34.9514 119.336 36.7774C120.187 38.6035 121.854 39.5774 123.058 38.9526Z" fill="#262627"/>
<path d="M98.7568 15.1411C99.9609 14.5164 100.247 12.5296 99.3957 10.7036C98.5444 8.8775 96.8781 7.90362 95.6739 8.52835C94.4697 9.15309 94.1837 11.1399 95.035 12.9659C95.8863 14.792 97.5526 15.7658 98.7568 15.1411Z" fill="#FF6584"/>
<path d="M88.5481 7.67287C89.7053 7.26813 90.427 6.25161 90.1601 5.4024C89.8932 4.55319 88.7388 4.19286 87.5816 4.5976C86.4244 5.00234 85.7027 6.01887 85.9696 6.86808C86.2365 7.71729 87.3909 8.0776 88.5481 7.67287Z" fill="#F9FAFB"/>
<path d="M74.1603 8.86513C75.3175 8.46039 76.0392 7.44387 75.7723 6.59466C75.5054 5.74545 74.351 5.38513 73.1938 5.78987C72.0366 6.19461 71.3149 7.21112 71.5818 8.06033C71.8487 8.90954 73.0031 9.26987 74.1603 8.86513Z" fill="#262627"/>
<path d="M105.678 26.9927C106.835 26.588 107.557 25.5714 107.29 24.7222C107.023 23.873 105.869 23.5127 104.712 23.9174C103.554 24.3222 102.833 25.3387 103.1 26.1879C103.366 27.0371 104.521 27.3974 105.678 26.9927Z" fill="#F9FAFB"/>
<path d="M107.519 14.189C108.676 13.7842 109.398 12.7677 109.131 11.9185C108.864 11.0693 107.709 10.709 106.552 11.1137C105.395 11.5185 104.673 12.535 104.94 13.3842C105.207 14.2334 106.361 14.5937 107.519 14.189Z" fill="#FF6584"/>
<path d="M121.864 26.2478C123.021 25.8431 123.743 24.8265 123.476 23.9773C123.209 23.1281 122.055 22.7678 120.898 23.1726C119.741 23.5773 119.019 24.5938 119.286 25.443C119.553 26.2922 120.707 26.6525 121.864 26.2478Z" fill="#262627"/>
<path d="M126.306 99.5134L141.567 98.6841L148.655 110.499C148.655 110.499 161.991 112.851 161.067 129.43C160.142 146.008 144.84 160.555 144.84 160.555L145.494 169.188L144.358 172.613L144.504 174.536L146.054 176.572L146.213 178.678L144.84 182.009L146.708 185.2L107.45 181.187L106.014 175.671L108.109 172.708L106.939 168.844L108.697 165.128L109.614 153.323C109.614 153.323 99.5825 137.423 111.099 125.448L115.721 117.159L120.893 110.503L126.306 99.5134Z" fill="#0080FF"/>
<path d="M133.893 96.1772C142.823 96.1772 150.063 88.5399 150.063 79.119C150.063 69.698 142.823 62.0608 133.893 62.0608C124.962 62.0608 117.723 69.698 117.723 79.119C117.723 88.5399 124.962 96.1772 133.893 96.1772Z" fill="#FFB6B6"/>
<path d="M131.728 78.085C130.334 78.085 128.942 78.0436 127.55 77.9608L127.301 77.946L127.334 77.6855C127.539 76.0573 127.423 74.402 126.995 72.8229C126.267 74.6209 125.184 76.2345 123.818 77.556L123.741 77.6305L123.637 77.6186C119.857 77.1824 116.111 76.4617 112.428 75.4621L112.287 75.424L112.259 75.2735C111.984 73.8486 111.841 72.3988 111.834 70.9447C111.834 66.4023 113.395 62.5791 116.23 60.1795C119.315 57.5674 123.738 56.7641 128.688 57.9162H144.517C146.257 57.9183 147.925 58.6484 149.156 59.9465C150.386 61.2445 151.078 63.0045 151.08 64.8402V75.4142L150.908 75.4618C144.647 77.1975 138.201 78.0791 131.728 78.085Z" fill="#2F2E41"/>
<path d="M21.3914 59.1108C20.6828 59.3842 20.106 59.9429 19.7874 60.6644C19.4688 61.3859 19.4346 62.2112 19.6921 62.9593L36.7678 112.386C37.0269 113.134 37.5565 113.742 38.2405 114.079C38.9244 114.415 39.7067 114.451 40.4159 114.179L106.689 88.6997C107.398 88.4263 107.975 87.8676 108.293 87.1461C108.612 86.4246 108.646 85.5993 108.389 84.8512L91.313 35.4241C91.0538 34.6766 90.5242 34.0681 89.8403 33.732C89.1564 33.3959 88.374 33.3598 87.6649 33.6314L21.3914 59.1108Z" fill="#CCCCCC"/>
<path d="M82.0238 95.4576L41.4576 111.054C40.6943 111.346 39.8523 111.307 39.1162 110.945C38.3801 110.584 37.8101 109.929 37.5312 109.124L22.0437 64.2943C21.7665 63.4892 21.8034 62.6009 22.1462 61.8243C22.4891 61.0478 23.1099 60.4465 23.8726 60.1522L86.4011 36.1126C87.1644 35.8202 88.0064 35.8591 88.7425 36.2208C89.4787 36.5825 90.0487 37.2375 90.3276 38.0421L97.811 59.7034C100.204 66.6537 99.8853 74.3213 96.9256 81.0242C93.966 87.7271 88.6068 92.9178 82.0238 95.4576Z" fill="white"/>
<path d="M52.8342 63.0718L43.1943 66.7779C43.0734 66.8244 42.945 66.8453 42.8165 66.8394C42.688 66.8335 42.5617 66.801 42.4451 66.7437C42.3285 66.6864 42.2237 66.6054 42.1367 66.5054C42.0498 66.4054 41.9823 66.2882 41.9383 66.1607C41.8942 66.0332 41.8744 65.8977 41.8799 65.7621C41.8855 65.6265 41.9163 65.4934 41.9707 65.3703C42.025 65.2473 42.1018 65.1368 42.1966 65.045C42.2914 64.9533 42.4024 64.8821 42.5233 64.8356L52.1632 61.1295C52.4074 61.0356 52.6769 61.0479 52.9124 61.1637C53.148 61.2794 53.3303 61.4891 53.4193 61.7467C53.5083 62.0043 53.4966 62.2886 53.3869 62.537C53.2772 62.7855 53.0784 62.9779 52.8342 63.0718Z" fill="#0080FF"/>
<path d="M75.816 58.7358L44.5665 70.7499C44.4456 70.7966 44.3172 70.8176 44.1885 70.8119C44.0598 70.8062 43.9335 70.7737 43.8168 70.7164C43.7 70.6591 43.5951 70.5781 43.508 70.4781C43.4209 70.378 43.3534 70.2608 43.3093 70.1331C43.2653 70.0055 43.2454 69.87 43.2511 69.7342C43.2567 69.5985 43.2876 69.4653 43.342 69.3422C43.3964 69.2191 43.4734 69.1085 43.5683 69.0168C43.6633 68.9251 43.7745 68.854 43.8955 68.8076L75.145 56.7936C75.2659 56.7471 75.3942 56.7262 75.5228 56.732C75.6513 56.7379 75.7775 56.7704 75.8942 56.8277C76.0108 56.8851 76.1156 56.966 76.2026 57.0661C76.2895 57.1661 76.357 57.2832 76.401 57.4108C76.4451 57.5383 76.4649 57.6737 76.4594 57.8093C76.4538 57.945 76.423 58.0781 76.3686 58.2011C76.3143 58.3242 76.2375 58.4347 76.1427 58.5265C76.0479 58.6182 75.9369 58.6893 75.816 58.7358Z" fill="#0080FF"/>
<path d="M77.391 63.2949L46.1416 75.309C46.0207 75.3555 45.8923 75.3764 45.7638 75.3706C45.6352 75.3647 45.509 75.3322 45.3924 75.2749C45.2757 75.2176 45.171 75.1366 45.084 75.0365C44.997 74.9365 44.9296 74.8194 44.8855 74.6918C44.8415 74.5643 44.8217 74.4289 44.8272 74.2933C44.8328 74.1577 44.8636 74.0245 44.9179 73.9015C44.9723 73.7785 45.049 73.6679 45.1439 73.5762C45.2387 73.4844 45.3497 73.4133 45.4706 73.3668L76.72 61.3527C76.9641 61.2592 77.2333 61.2718 77.4686 61.3876C77.7039 61.5034 77.886 61.713 77.975 61.9703C78.0639 62.2277 78.0523 62.5117 77.9428 62.7601C77.8333 63.0085 77.6349 63.2008 77.391 63.2949Z" fill="#0080FF"/>
<path d="M78.9661 67.8542L47.7167 79.8683C47.5958 79.915 47.4673 79.9361 47.3386 79.9303C47.21 79.9246 47.0837 79.8921 46.9669 79.8348C46.8501 79.7776 46.7452 79.6966 46.6582 79.5965C46.5711 79.4964 46.5036 79.3792 46.4595 79.2515C46.4154 79.1239 46.3956 78.9884 46.4012 78.8527C46.4068 78.7169 46.4377 78.5837 46.4921 78.4606C46.5466 78.3375 46.6235 78.227 46.7185 78.1352C46.8135 78.0435 46.9247 77.9724 47.0457 77.9261L78.2951 65.912C78.416 65.8655 78.5444 65.8446 78.6729 65.8505C78.8015 65.8563 78.9277 65.8888 79.0443 65.9461C79.1609 66.0035 79.2658 66.0844 79.3527 66.1845C79.4397 66.2845 79.5071 66.4017 79.5512 66.5292C79.5952 66.6567 79.6151 66.7921 79.6095 66.9278C79.6039 67.0634 79.5731 67.1965 79.5188 67.3195C79.4645 67.4426 79.3877 67.5531 79.2929 67.6449C79.198 67.7366 79.087 67.8077 78.9661 67.8542Z" fill="#0080FF"/>
<path d="M80.5413 72.4136L49.2919 84.4276C49.0477 84.5215 48.7782 84.5092 48.5426 84.3935C48.3071 84.2777 48.1248 84.068 48.0358 83.8104C47.9468 83.5529 47.9585 83.2686 48.0682 83.0201C48.1779 82.7716 48.3767 82.5793 48.6209 82.4854L79.8703 70.4713C79.9912 70.4248 80.1196 70.4039 80.2481 70.4098C80.3767 70.4156 80.5029 70.4482 80.6195 70.5055C80.7361 70.5628 80.8409 70.6438 80.9279 70.7438C81.0149 70.8438 81.0823 70.961 81.1264 71.0885C81.1704 71.216 81.1902 71.3515 81.1847 71.4871C81.1791 71.6227 81.1483 71.7558 81.094 71.8789C81.0396 72.0019 80.9629 72.1124 80.868 72.2042C80.7732 72.2959 80.6622 72.3671 80.5413 72.4136Z" fill="#0080FF"/>
<path d="M179.696 85.0756L162.586 128.267C161.856 130.094 160.474 131.546 158.739 132.308C157.003 133.07 155.053 133.082 153.309 132.341C152.407 131.958 151.589 131.385 150.903 130.657C150.218 129.929 149.681 129.061 149.324 128.107C148.967 127.152 148.798 126.131 148.827 125.106C148.856 124.08 149.083 123.072 149.494 122.142L168.57 77.8513L179.086 50.4234C178.177 49.4673 177.57 48.2393 177.346 46.9062C177.121 45.5731 177.292 44.1995 177.834 42.9721C178.375 41.7447 179.262 40.723 180.373 40.0457C181.485 39.3685 182.767 39.0685 184.045 39.1866C185.324 39.3048 186.537 39.8352 187.519 40.706C188.502 41.5767 189.207 42.7455 189.538 44.0535C189.869 45.3616 189.811 46.7455 189.371 48.0172C188.93 49.2889 188.129 50.3868 187.077 51.1617L179.696 85.0756Z" fill="#FFB6B6"/>
</g>
<defs>
<clipPath id="clip0_131_3319">
<rect width="218" height="261" fill="white"/>
</clipPath>
</defs>
</svg>
