<svg width="180" height="150" viewBox="0 0 180 150" fill="none" xmlns="http://www.w3.org/2000/svg">
<g clip-path="url(#clip0_158_4485)">
<path d="M178.421 57.363C178.356 57.3631 178.293 57.3447 178.241 57.3105L90.9062 0.847829C90.6404 0.676802 90.3246 0.585403 90.0012 0.585915C89.6778 0.586427 89.3623 0.678825 89.0972 0.850692L2.39188 57.3099C2.3233 57.3546 2.23842 57.3721 2.15591 57.3587C2.0734 57.3452 2.00002 57.3019 1.95192 57.2382C1.90382 57.1746 1.88493 57.0958 1.89941 57.0192C1.91389 56.9426 1.96055 56.8745 2.02913 56.8298L88.7345 0.370593C89.1057 0.130016 89.5474 0.000693494 90.0002 2.78133e-06C90.4529 -0.000687931 90.895 0.127285 91.2671 0.366728L178.601 56.8292C178.657 56.8649 178.698 56.916 178.72 56.9751C178.742 57.0342 178.742 57.0982 178.722 57.1577C178.702 57.2173 178.662 57.2693 178.608 57.3062C178.554 57.3432 178.488 57.3631 178.421 57.363Z" fill="#3F3D56"/>
<path d="M7.3465 59.3644L90.0871 2.43872L173.456 63.4149L94.3503 106.948L51.4029 97.8606L7.3465 59.3644Z" fill="#E6E6E6"/>
<path d="M55.0281 133.837H14.1522C13.9012 133.838 13.6526 133.792 13.4206 133.703C13.1887 133.614 12.9778 133.483 12.8003 133.319C12.6227 133.154 12.4818 132.959 12.3857 132.743C12.2895 132.528 12.2401 132.297 12.2401 132.064C12.2401 131.831 12.2895 131.601 12.3857 131.385C12.4818 131.17 12.6227 130.975 12.8003 130.81C12.9778 130.645 13.1887 130.515 13.4206 130.426C13.6526 130.337 13.9012 130.291 14.1522 130.292H55.0281C55.2791 130.291 55.5277 130.337 55.7597 130.426C55.9916 130.515 56.2024 130.645 56.38 130.81C56.5576 130.975 56.6985 131.17 56.7946 131.385C56.8908 131.601 56.9402 131.831 56.9402 132.064C56.9402 132.297 56.8908 132.528 56.7946 132.743C56.6985 132.959 56.5576 133.154 56.38 133.319C56.2024 133.483 55.9916 133.614 55.7597 133.703C55.5277 133.792 55.2791 133.838 55.0281 133.837Z" fill="#0080FF"/>
<path d="M28.8176 126.215H14.1522C13.9012 126.215 13.6526 126.17 13.4206 126.081C13.1887 125.992 12.9778 125.861 12.8003 125.697C12.6227 125.532 12.4818 125.337 12.3857 125.121C12.2895 124.906 12.2401 124.675 12.2401 124.442C12.2401 124.209 12.2895 123.979 12.3857 123.763C12.4818 123.548 12.6227 123.353 12.8003 123.188C12.9778 123.023 13.1887 122.893 13.4206 122.804C13.6526 122.715 13.9012 122.669 14.1522 122.67H28.8176C29.0686 122.669 29.3171 122.715 29.5491 122.804C29.7811 122.893 29.9919 123.023 30.1695 123.188C30.3471 123.353 30.488 123.548 30.5841 123.763C30.6802 123.979 30.7297 124.209 30.7297 124.442C30.7297 124.675 30.6802 124.906 30.5841 125.121C30.488 125.337 30.3471 125.532 30.1695 125.697C29.9919 125.861 29.7811 125.992 29.5491 126.081C29.3171 126.17 29.0686 126.215 28.8176 126.215Z" fill="#0080FF"/>
<path d="M91.2506 91.0714C90.9399 91.0717 90.6321 91.0157 90.3445 90.9066L39.3159 71.2509V9.7253C39.3165 9.18125 39.5496 8.65966 39.9641 8.27496C40.3785 7.89026 40.9403 7.67385 41.5264 7.67322H139.421C140.007 7.67385 140.569 7.89026 140.983 8.27496C141.398 8.65966 141.631 9.18125 141.632 9.7253V71.2938L141.536 71.3319L92.1841 90.897C91.8885 91.0123 91.5711 91.0716 91.2506 91.0714Z" fill="white"/>
<path d="M91.2506 91.2178C90.9193 91.2181 90.5911 91.1585 90.2844 91.0423L39.158 71.3488V9.72527C39.1587 9.14235 39.4084 8.5835 39.8524 8.17131C40.2965 7.75913 40.8985 7.52727 41.5264 7.52661H139.421C140.049 7.52727 140.651 7.75913 141.095 8.17131C141.539 8.5835 141.789 9.14235 141.79 9.72527V71.3906L92.246 91.0317C91.9309 91.1548 91.5924 91.218 91.2506 91.2178ZM39.7895 70.9572L90.5252 90.5002C90.9985 90.6784 91.5284 90.6755 91.9993 90.492L141.158 71.0035V9.72527C141.157 9.29781 140.974 8.88799 140.649 8.58573C140.323 8.28346 139.882 8.11343 139.421 8.11292H41.5264C41.0659 8.11343 40.6245 8.28346 40.2989 8.58573C39.9733 8.88799 39.7901 9.29781 39.7895 9.72527L39.7895 70.9572Z" fill="#3F3D56"/>
<path d="M177.789 56.7767H177.726L141.474 71.1472L91.8727 90.8091C91.6789 90.8848 91.4709 90.9243 91.2606 90.9253C91.0504 90.9263 90.8419 90.8888 90.6473 90.815L39.4737 71.1061L2.33049 56.8002L2.27375 56.7767H2.21053C1.62446 56.7773 1.06258 56.9937 0.648164 57.3784C0.233751 57.7631 0.00065029 58.2848 0 58.8288V147.948C0.000651124 148.492 0.233751 149.014 0.648164 149.398C1.06258 149.783 1.62446 149.999 2.21053 150H177.789C178.376 149.999 178.937 149.783 179.352 149.398C179.766 149.014 179.999 148.492 180 147.948V58.8288C179.999 58.2848 179.766 57.7631 179.352 57.3784C178.937 56.9937 178.376 56.7773 177.789 56.7767ZM179.368 147.948C179.368 148.337 179.202 148.709 178.906 148.984C178.61 149.259 178.208 149.414 177.789 149.414H2.21053C1.79181 149.414 1.3903 149.259 1.09423 148.984C0.798155 148.709 0.631746 148.337 0.631579 147.948V58.8288C0.632152 58.4498 0.790535 58.0856 1.07361 57.8124C1.35669 57.5393 1.74256 57.3782 2.15054 57.363L39.4737 71.7394L90.4043 91.3573C90.9556 91.5655 91.5734 91.5624 92.1222 91.3485L141.474 71.7833L177.853 57.363C178.26 57.3794 178.645 57.5408 178.927 57.8138C179.209 58.0868 179.367 58.4504 179.368 58.8288V147.948Z" fill="#3F3D56"/>
<path d="M90.7405 73.625C88.8567 73.6283 87.0228 73.0628 85.5155 72.0138L85.4221 71.9486L65.7449 57.963C64.8336 57.3148 64.0688 56.5063 63.4941 55.5837C62.9194 54.6611 62.546 53.6425 62.3954 52.586C62.2447 51.5294 62.3197 50.4557 62.6161 49.4261C62.9124 48.3965 63.4243 47.4311 64.1225 46.5851C64.8208 45.7392 65.6916 45.0291 66.6855 44.4956C67.6793 43.9621 68.7766 43.6155 69.9147 43.4757C71.0528 43.3358 72.2094 43.4054 73.3185 43.6805C74.4276 43.9556 75.4675 44.4308 76.3788 45.079L89.1242 54.1515L119.244 17.6869C119.942 16.8412 120.813 16.1314 121.807 15.5982C122.801 15.065 123.899 14.7188 125.037 14.5793C126.175 14.4398 127.332 14.5099 128.441 14.7853C129.55 15.0608 130.589 15.5364 131.5 16.1849L131.313 16.421L131.505 16.1884C133.343 17.4995 134.545 19.4339 134.849 21.567C135.152 23.7001 134.531 25.8578 133.123 27.5667L97.6956 70.4578C96.8762 71.4462 95.8226 72.246 94.6164 72.7953C93.4103 73.3445 92.084 73.6284 90.7405 73.625Z" fill="#0080FF"/>
</g>
<defs>
<clipPath id="clip0_158_4485">
<rect width="180" height="150" fill="white"/>
</clipPath>
</defs>
</svg>
